<mxfile host="65bd71144e">
    <diagram id="bepnTB04hb4Kc_Kru4ng" name="Page-1">
        <mxGraphModel dx="1593" dy="3833" grid="1" gridSize="10" guides="1" tooltips="1" connect="1" arrows="1" fold="1" page="1" pageScale="1" pageWidth="827" pageHeight="1169" math="0" shadow="0">
            <root>
                <mxCell id="0"/>
                <mxCell id="1" parent="0"/>
                <mxCell id="2" value="&lt;div&gt;&lt;span style=&quot;background-color: rgb(255 , 255 , 255)&quot;&gt;&lt;font color=&quot;#050505&quot; style=&quot;font-size: 16px&quot;&gt;&amp;nbsp;1- Le genre de mon histoire&amp;nbsp; &amp;nbsp; &amp;nbsp;sera science-fiction/aventure.&amp;nbsp;&lt;/font&gt;&lt;/span&gt;&lt;/div&gt;&lt;div&gt;&lt;font style=&quot;font-size: 16px&quot;&gt;&lt;br&gt;&lt;/font&gt;&lt;/div&gt;&lt;div&gt;&lt;span style=&quot;background-color: rgb(255 , 255 , 255)&quot;&gt;&lt;font style=&quot;font-size: 16px&quot;&gt;&lt;font color=&quot;#030202&quot;&gt;&amp;nbsp;2-&lt;/font&gt;&amp;nbsp;&lt;/font&gt;&lt;span style=&quot;color: rgb(17 , 17 , 17)&quot;&gt;Mon histoire n'est pas&amp;nbsp; &amp;nbsp;inspirée d'une histoire&amp;nbsp; &amp;nbsp;existante&lt;/span&gt;&lt;/span&gt;&lt;/div&gt;&lt;div&gt;&lt;span style=&quot;background-color: rgb(255 , 255 , 255)&quot;&gt;&lt;span style=&quot;color: rgb(17 , 17 , 17)&quot;&gt;&lt;br&gt;&lt;/span&gt;&lt;/span&gt;&lt;/div&gt;&lt;div&gt;&lt;span style=&quot;background-color: rgb(255 , 255 , 255)&quot;&gt;&lt;span style=&quot;color: rgb(17 , 17 , 17)&quot;&gt;&amp;nbsp;3- Le nom de mon histoire&amp;nbsp; &amp;nbsp;sera &quot; Machine &quot;&amp;nbsp;&lt;/span&gt;&lt;/span&gt;&lt;/div&gt;&lt;div&gt;&lt;span style=&quot;background-color: rgb(255 , 255 , 255)&quot;&gt;&lt;span style=&quot;color: rgb(17 , 17 , 17)&quot;&gt;&lt;br&gt;&lt;/span&gt;&lt;/span&gt;&lt;/div&gt;&lt;div&gt;&lt;span style=&quot;background-color: rgb(255 , 255 , 255)&quot;&gt;&lt;span style=&quot;color: rgb(17 , 17 , 17)&quot;&gt;&amp;nbsp;4- Les fonds de l'interface de&amp;nbsp; &amp;nbsp;mon histoire seront noirs.&amp;nbsp;&lt;/span&gt;&lt;/span&gt;&lt;/div&gt;&lt;div&gt;&lt;span style=&quot;background-color: rgb(255 , 255 , 255)&quot;&gt;&lt;span style=&quot;color: rgb(17 , 17 , 17)&quot;&gt;&lt;br&gt;&lt;/span&gt;&lt;/span&gt;&lt;/div&gt;&lt;div&gt;&lt;span style=&quot;background-color: rgb(255 , 255 , 255)&quot;&gt;&lt;span style=&quot;color: rgb(17 , 17 , 17)&quot;&gt;&amp;nbsp;5- Les boutons du fond et du&amp;nbsp; &amp;nbsp;texte seront gris ou rouge.&amp;nbsp;&lt;/span&gt;&lt;/span&gt;&lt;/div&gt;&lt;div&gt;&lt;span style=&quot;background-color: rgb(255 , 255 , 255)&quot;&gt;&lt;span style=&quot;color: rgb(17 , 17 , 17)&quot;&gt;&lt;br&gt;&lt;/span&gt;&lt;/span&gt;&lt;/div&gt;&lt;div&gt;&lt;span style=&quot;background-color: rgb(255 , 255 , 255)&quot;&gt;&lt;span style=&quot;color: rgb(17 , 17 , 17)&quot;&gt;&amp;nbsp;6- L'état de survol de mes&amp;nbsp; &amp;nbsp;boutons d'interface seront&amp;nbsp; &amp;nbsp;gris ou rouge.&amp;nbsp;&lt;/span&gt;&lt;/span&gt;&lt;/div&gt;" style="text;strokeColor=none;fillColor=#FFFFFF;align=left;verticalAlign=top;rounded=0;textDirection=ltr;whiteSpace=wrap;html=1;fontSize=16;" parent="1" vertex="1">
                    <mxGeometry x="72" y="530" width="220" height="370" as="geometry"/>
                </mxCell>
                <mxCell id="8" value="" style="edgeStyle=none;html=1;fontFamily=Helvetica;fontSize=16;fontColor=#030202;entryX=0.5;entryY=0;entryDx=0;entryDy=0;" parent="1" source="5" target="15" edge="1">
                    <mxGeometry relative="1" as="geometry">
                        <mxPoint x="406" y="130" as="targetPoint"/>
                    </mxGeometry>
                </mxCell>
                <mxCell id="5" value="&lt;font style=&quot;font-size: 12px&quot;&gt;Réveil dans un monde ravagé par le temps&lt;/font&gt;" style="rounded=1;whiteSpace=wrap;html=1;labelBackgroundColor=#FFFFFF;fontFamily=Helvetica;fontSize=16;fontColor=#030202;fillColor=#FFFFFF;" parent="1" vertex="1">
                    <mxGeometry x="346" y="30" width="120" height="60" as="geometry"/>
                </mxCell>
                <mxCell id="9" style="edgeStyle=none;html=1;fontFamily=Helvetica;fontSize=16;fontColor=#030202;startArrow=none;entryX=0;entryY=0.5;entryDx=0;entryDy=0;" parent="1" source="15" edge="1">
                    <mxGeometry relative="1" as="geometry">
                        <mxPoint x="346" y="320" as="targetPoint"/>
                        <Array as="points">
                            <mxPoint x="296" y="167.5"/>
                            <mxPoint x="296" y="320"/>
                        </Array>
                        <mxPoint x="246" y="160" as="sourcePoint"/>
                    </mxGeometry>
                </mxCell>
                <mxCell id="10" style="edgeStyle=none;html=1;fontFamily=Helvetica;fontSize=16;fontColor=#030202;startArrow=none;entryX=0;entryY=0.5;entryDx=0;entryDy=0;" parent="1" source="23" target="26" edge="1">
                    <mxGeometry relative="1" as="geometry">
                        <mxPoint x="566" y="250" as="targetPoint"/>
                        <Array as="points"/>
                        <mxPoint x="556" y="160.55555555555554" as="sourcePoint"/>
                    </mxGeometry>
                </mxCell>
                <mxCell id="14" value="" style="edgeStyle=none;html=1;fontFamily=Helvetica;fontSize=16;fontColor=#030202;endArrow=none;exitX=1;exitY=0.5;exitDx=0;exitDy=0;" parent="1" source="15" edge="1">
                    <mxGeometry relative="1" as="geometry">
                        <mxPoint x="486" y="167.5" as="targetPoint"/>
                        <mxPoint x="466" y="160" as="sourcePoint"/>
                        <Array as="points"/>
                    </mxGeometry>
                </mxCell>
                <mxCell id="25" value="" style="edgeStyle=none;html=1;fontSize=12;fontColor=#000000;startArrow=none;" parent="1" source="27" edge="1">
                    <mxGeometry relative="1" as="geometry">
                        <mxPoint x="406" y="290" as="targetPoint"/>
                    </mxGeometry>
                </mxCell>
                <mxCell id="15" value="&lt;div&gt;&lt;span style=&quot;color: rgb(0 , 0 , 0)&quot;&gt;Vous entendez un énorme bruit&lt;/span&gt;&lt;/div&gt;" style="rhombus;whiteSpace=wrap;html=1;labelBackgroundColor=#FFFFFF;fillColor=#FFFFFF;align=center;" parent="1" vertex="1">
                    <mxGeometry x="346" y="127.5" width="120" height="80" as="geometry"/>
                </mxCell>
                <mxCell id="23" value="&lt;span style=&quot;font-size: 12px ; background-color: rgb(255 , 255 , 255)&quot;&gt;Ce cacher&lt;/span&gt;" style="text;html=1;strokeColor=none;fillColor=none;align=center;verticalAlign=middle;whiteSpace=wrap;rounded=0;labelBackgroundColor=none;fontFamily=Helvetica;fontSize=16;fontColor=#030202;" parent="1" vertex="1">
                    <mxGeometry x="486" y="152.5" width="70" height="30" as="geometry"/>
                </mxCell>
                <mxCell id="34" style="edgeStyle=none;html=1;fontSize=12;fontColor=#000000;entryX=0.5;entryY=0;entryDx=0;entryDy=0;startArrow=none;" parent="1" target="33" edge="1">
                    <mxGeometry relative="1" as="geometry">
                        <mxPoint x="406" y="387.5" as="sourcePoint"/>
                        <mxPoint x="406" y="400" as="targetPoint"/>
                    </mxGeometry>
                </mxCell>
                <mxCell id="43" value="" style="edgeStyle=none;html=1;fontSize=12;fontColor=#0F0F0F;startArrow=none;" parent="1" source="48" target="42" edge="1">
                    <mxGeometry relative="1" as="geometry"/>
                </mxCell>
                <mxCell id="30" style="edgeStyle=none;html=1;fontSize=12;fontColor=#000000;entryX=1;entryY=0.5;entryDx=0;entryDy=0;" parent="1" source="26" target="5" edge="1">
                    <mxGeometry relative="1" as="geometry">
                        <mxPoint x="653" y="30" as="targetPoint"/>
                        <Array as="points">
                            <mxPoint x="646" y="60"/>
                        </Array>
                    </mxGeometry>
                </mxCell>
                <mxCell id="26" value="En vous cachant vous tomber et votre crâne se cogne sur une roche, vous mourrez" style="rounded=1;whiteSpace=wrap;html=1;labelBackgroundColor=none;fontSize=12;fontColor=#000000;strokeColor=#030303;fillColor=#FFFFFF;" parent="1" vertex="1">
                    <mxGeometry x="586" y="137.5" width="120" height="60" as="geometry"/>
                </mxCell>
                <mxCell id="27" value="&lt;span style=&quot;font-size: 12px ; background-color: rgb(255 , 255 , 255)&quot;&gt;Explorer&lt;/span&gt;" style="text;html=1;strokeColor=none;fillColor=none;align=center;verticalAlign=middle;whiteSpace=wrap;rounded=0;labelBackgroundColor=none;fontFamily=Helvetica;fontSize=16;fontColor=#030202;" parent="1" vertex="1">
                    <mxGeometry x="331" y="230" width="150" height="25" as="geometry"/>
                </mxCell>
                <mxCell id="28" value="" style="edgeStyle=none;html=1;fontSize=12;fontColor=#000000;endArrow=none;" parent="1" source="15" target="27" edge="1">
                    <mxGeometry relative="1" as="geometry">
                        <mxPoint x="406" y="200" as="sourcePoint"/>
                        <mxPoint x="406" y="290" as="targetPoint"/>
                    </mxGeometry>
                </mxCell>
                <mxCell id="11" value="&lt;span style=&quot;font-size: 12px ; background-color: rgb(255 , 255 , 255)&quot;&gt;Aller vers le bruit&lt;/span&gt;" style="text;html=1;strokeColor=none;fillColor=none;align=center;verticalAlign=middle;whiteSpace=wrap;rounded=0;labelBackgroundColor=none;fontFamily=Helvetica;fontSize=16;fontColor=#030202;" parent="1" vertex="1">
                    <mxGeometry x="246" y="230" width="100" height="25" as="geometry"/>
                </mxCell>
                <mxCell id="29" value="" style="edgeStyle=none;html=1;fontFamily=Helvetica;fontSize=16;fontColor=#030202;startArrow=none;entryX=0;entryY=0.5;entryDx=0;entryDy=0;exitX=0;exitY=0.5;exitDx=0;exitDy=0;endArrow=none;" parent="1" source="15" target="15" edge="1">
                    <mxGeometry relative="1" as="geometry">
                        <mxPoint x="346" y="320" as="targetPoint"/>
                        <Array as="points">
                            <mxPoint x="366" y="167.5"/>
                        </Array>
                        <mxPoint x="346" y="160" as="sourcePoint"/>
                    </mxGeometry>
                </mxCell>
                <mxCell id="56" value="" style="edgeStyle=none;html=1;fontSize=12;fontColor=#0F0F0F;startArrow=none;" parent="1" source="61" target="55" edge="1">
                    <mxGeometry relative="1" as="geometry"/>
                </mxCell>
                <mxCell id="58" value="" style="edgeStyle=none;html=1;fontSize=12;fontColor=#0F0F0F;startArrow=none;" parent="1" source="63" target="57" edge="1">
                    <mxGeometry relative="1" as="geometry"/>
                </mxCell>
                <mxCell id="65" style="edgeStyle=none;html=1;fontSize=12;fontColor=#000000;startArrow=none;" parent="1" source="67" target="66" edge="1">
                    <mxGeometry relative="1" as="geometry">
                        <mxPoint x="406" y="569.9999999999998" as="targetPoint"/>
                    </mxGeometry>
                </mxCell>
                <mxCell id="33" value="Trois couloir sont devant vous" style="rhombus;whiteSpace=wrap;html=1;labelBackgroundColor=none;fontSize=12;fontColor=#000000;strokeColor=none;fillColor=#FFFFFF;" parent="1" vertex="1">
                    <mxGeometry x="346" y="407.5" width="120" height="80" as="geometry"/>
                </mxCell>
                <mxCell id="45" style="edgeStyle=none;html=1;exitX=1;exitY=0.5;exitDx=0;exitDy=0;fontSize=12;fontColor=#0F0F0F;entryX=1;entryY=0.5;entryDx=0;entryDy=0;" parent="1" source="42" target="42" edge="1">
                    <mxGeometry relative="1" as="geometry">
                        <mxPoint x="706" y="319.5" as="targetPoint"/>
                    </mxGeometry>
                </mxCell>
                <mxCell id="46" style="edgeStyle=none;html=1;exitX=1;exitY=0.5;exitDx=0;exitDy=0;fontSize=12;fontColor=#0F0F0F;" parent="1" source="42" target="5" edge="1">
                    <mxGeometry relative="1" as="geometry">
                        <mxPoint x="686" as="targetPoint"/>
                        <Array as="points">
                            <mxPoint x="726" y="320.5"/>
                            <mxPoint x="726" y="60"/>
                        </Array>
                    </mxGeometry>
                </mxCell>
                <mxCell id="42" value="&lt;font color=&quot;#0f0f0f&quot;&gt;Quelqu'un vous cogne, vous mourrez&lt;/font&gt;" style="rounded=1;whiteSpace=wrap;html=1;fillColor=#FFFFFF;labelBackgroundColor=#FFFFFF;" parent="1" vertex="1">
                    <mxGeometry x="586" y="290" width="120" height="60" as="geometry"/>
                </mxCell>
                <mxCell id="48" value="&lt;span style=&quot;font-size: 12px ; background-color: rgb(255 , 255 , 255)&quot;&gt;Inspecter les environs&lt;/span&gt;" style="text;html=1;strokeColor=none;fillColor=none;align=center;verticalAlign=middle;whiteSpace=wrap;rounded=0;labelBackgroundColor=none;fontFamily=Helvetica;fontSize=16;fontColor=#030202;" parent="1" vertex="1">
                    <mxGeometry x="486" y="305" width="70" height="30" as="geometry"/>
                </mxCell>
                <mxCell id="50" value="" style="edgeStyle=none;html=1;fontSize=12;fontColor=#0F0F0F;endArrow=none;" parent="1" target="48" edge="1">
                    <mxGeometry relative="1" as="geometry">
                        <mxPoint x="466" y="320" as="sourcePoint"/>
                        <mxPoint x="586" y="320" as="targetPoint"/>
                    </mxGeometry>
                </mxCell>
                <mxCell id="52" value="" style="edgeStyle=none;html=1;fontSize=12;fontColor=#000000;entryX=0.5;entryY=0;entryDx=0;entryDy=0;endArrow=none;" parent="1" edge="1">
                    <mxGeometry relative="1" as="geometry">
                        <mxPoint x="406" y="350" as="sourcePoint"/>
                        <mxPoint x="406" y="357.5" as="targetPoint"/>
                    </mxGeometry>
                </mxCell>
                <mxCell id="53" value="&lt;span style=&quot;font-size: 12px ; background-color: rgb(255 , 255 , 255)&quot;&gt;Entrer&lt;/span&gt;" style="text;html=1;strokeColor=none;fillColor=none;align=center;verticalAlign=middle;whiteSpace=wrap;rounded=0;labelBackgroundColor=none;fontFamily=Helvetica;fontSize=16;fontColor=#030202;" parent="1" vertex="1">
                    <mxGeometry x="330" y="357.5" width="150" height="25" as="geometry"/>
                </mxCell>
                <mxCell id="60" style="edgeStyle=none;html=1;fontSize=12;fontColor=#0F0F0F;exitX=1;exitY=0.5;exitDx=0;exitDy=0;entryX=1;entryY=0.5;entryDx=0;entryDy=0;" parent="1" source="55" target="5" edge="1">
                    <mxGeometry relative="1" as="geometry">
                        <mxPoint x="726" y="37.5" as="targetPoint"/>
                        <mxPoint x="726" y="457.5" as="sourcePoint"/>
                        <Array as="points">
                            <mxPoint x="726" y="447.5"/>
                            <mxPoint x="726" y="60"/>
                        </Array>
                    </mxGeometry>
                </mxCell>
                <mxCell id="55" value="&lt;span&gt;Quelqu'un vous tend un piège vous mourrez&lt;/span&gt;" style="rounded=1;whiteSpace=wrap;html=1;fillColor=#FFFFFF;strokeColor=none;fontColor=#000000;labelBackgroundColor=none;" parent="1" vertex="1">
                    <mxGeometry x="586" y="417.5" width="120" height="60" as="geometry"/>
                </mxCell>
                <mxCell id="59" style="edgeStyle=none;html=1;fontSize=12;fontColor=#0F0F0F;entryX=0;entryY=0.5;entryDx=0;entryDy=0;" parent="1" source="57" target="5" edge="1">
                    <mxGeometry relative="1" as="geometry">
                        <mxPoint x="205.9999999999999" y="37.5" as="targetPoint"/>
                        <Array as="points">
                            <mxPoint x="162" y="60"/>
                        </Array>
                    </mxGeometry>
                </mxCell>
                <mxCell id="57" value="&lt;font color=&quot;#171717&quot;&gt;Dans un bureau, vous trouvez des clés, mais vous mourrez en trébuchant.&lt;/font&gt;" style="rounded=1;whiteSpace=wrap;html=1;fillColor=#dae8fc;strokeColor=#6c8ebf;labelBackgroundColor=none;" parent="1" vertex="1">
                    <mxGeometry x="102" y="417.5" width="120" height="62.5" as="geometry"/>
                </mxCell>
                <mxCell id="61" value="&lt;span style=&quot;font-size: 12px ; background-color: rgb(255 , 255 , 255)&quot;&gt;Gauche&lt;/span&gt;" style="text;html=1;strokeColor=none;fillColor=none;align=center;verticalAlign=middle;whiteSpace=wrap;rounded=0;labelBackgroundColor=none;fontFamily=Helvetica;fontSize=16;fontColor=#030202;" parent="1" vertex="1">
                    <mxGeometry x="486" y="432.5" width="70" height="30" as="geometry"/>
                </mxCell>
                <mxCell id="62" value="" style="edgeStyle=none;html=1;fontSize=12;fontColor=#0F0F0F;endArrow=none;" parent="1" source="33" target="61" edge="1">
                    <mxGeometry relative="1" as="geometry">
                        <mxPoint x="466" y="447.4999999999998" as="sourcePoint"/>
                        <mxPoint x="586" y="447.4999999999998" as="targetPoint"/>
                    </mxGeometry>
                </mxCell>
                <mxCell id="63" value="&lt;span style=&quot;font-size: 12px ; background-color: rgb(255 , 255 , 255)&quot;&gt;Droite&lt;/span&gt;" style="text;html=1;strokeColor=none;fillColor=none;align=center;verticalAlign=middle;whiteSpace=wrap;rounded=0;labelBackgroundColor=none;fontFamily=Helvetica;fontSize=16;fontColor=#030202;" parent="1" vertex="1">
                    <mxGeometry x="280" y="432.5" width="70" height="30" as="geometry"/>
                </mxCell>
                <mxCell id="64" value="" style="edgeStyle=none;html=1;fontSize=12;fontColor=#0F0F0F;endArrow=none;" parent="1" source="33" target="63" edge="1">
                    <mxGeometry relative="1" as="geometry">
                        <mxPoint x="346" y="447.4999999999998" as="sourcePoint"/>
                        <mxPoint x="265.9999999999999" y="447.4999999999998" as="targetPoint"/>
                    </mxGeometry>
                </mxCell>
                <mxCell id="wkpHDkZYtQF0uhUTYPoG-68" style="edgeStyle=none;html=1;fontSize=12;fontColor=#000000;" parent="1" source="66" target="wkpHDkZYtQF0uhUTYPoG-69" edge="1">
                    <mxGeometry relative="1" as="geometry">
                        <mxPoint x="405" y="699.9999999999998" as="targetPoint"/>
                    </mxGeometry>
                </mxCell>
                <mxCell id="66" value="Devant vous se tient une énorme porte circulaire" style="rounded=1;whiteSpace=wrap;html=1;labelBackgroundColor=none;fontSize=12;fontColor=#000000;strokeColor=#030303;fillColor=#FFFFFF;" parent="1" vertex="1">
                    <mxGeometry x="345" y="569.9999999999998" width="120" height="60" as="geometry"/>
                </mxCell>
                <mxCell id="67" value="&lt;span style=&quot;font-size: 12px ; background-color: rgb(255 , 255 , 255)&quot;&gt;Avant&lt;/span&gt;" style="text;html=1;strokeColor=none;fillColor=none;align=center;verticalAlign=middle;whiteSpace=wrap;rounded=0;labelBackgroundColor=none;fontFamily=Helvetica;fontSize=16;fontColor=#030202;" parent="1" vertex="1">
                    <mxGeometry x="371" y="510" width="70" height="30" as="geometry"/>
                </mxCell>
                <mxCell id="68" value="" style="edgeStyle=none;html=1;fontSize=12;fontColor=#000000;endArrow=none;" parent="1" source="33" target="67" edge="1">
                    <mxGeometry relative="1" as="geometry">
                        <mxPoint x="405.19672131147547" y="569.9999999999998" as="targetPoint"/>
                        <mxPoint x="405.73884657236124" y="487.32589771490757" as="sourcePoint"/>
                    </mxGeometry>
                </mxCell>
                <mxCell id="wkpHDkZYtQF0uhUTYPoG-70" style="edgeStyle=none;html=1;fontSize=12;fontColor=#000000;startArrow=none;entryX=0.5;entryY=0;entryDx=0;entryDy=0;" parent="1" source="wkpHDkZYtQF0uhUTYPoG-86" edge="1">
                    <mxGeometry relative="1" as="geometry">
                        <mxPoint x="405" y="860" as="targetPoint"/>
                    </mxGeometry>
                </mxCell>
                <mxCell id="wkpHDkZYtQF0uhUTYPoG-72" style="edgeStyle=none;html=1;fontSize=12;fontColor=#000000;entryX=0;entryY=0.5;entryDx=0;entryDy=0;startArrow=none;" parent="1" source="wkpHDkZYtQF0uhUTYPoG-80" target="wkpHDkZYtQF0uhUTYPoG-75" edge="1">
                    <mxGeometry relative="1" as="geometry">
                        <mxPoint x="615.8636363636363" y="540" as="targetPoint"/>
                    </mxGeometry>
                </mxCell>
                <mxCell id="wkpHDkZYtQF0uhUTYPoG-69" value="&lt;font color=&quot;#0a0a0a&quot;&gt;Avez-vous la clé?&lt;/font&gt;" style="rhombus;whiteSpace=wrap;html=1;labelBackgroundColor=none;fontSize=12;strokeColor=#6c8ebf;fillColor=#dae8fc;" parent="1" vertex="1">
                    <mxGeometry x="346" y="690" width="120" height="80" as="geometry"/>
                </mxCell>
                <mxCell id="wkpHDkZYtQF0uhUTYPoG-78" style="edgeStyle=none;html=1;exitX=1;exitY=0.5;exitDx=0;exitDy=0;fontSize=12;fontColor=#000000;startArrow=none;" parent="1" source="wkpHDkZYtQF0uhUTYPoG-82" edge="1">
                    <mxGeometry relative="1" as="geometry">
                        <mxPoint x="582" y="890.3846153846152" as="targetPoint"/>
                    </mxGeometry>
                </mxCell>
                <mxCell id="wkpHDkZYtQF0uhUTYPoG-84" style="edgeStyle=none;html=1;exitX=0.5;exitY=1;exitDx=0;exitDy=0;fontSize=12;fontColor=#000000;startArrow=none;" parent="1" source="wkpHDkZYtQF0uhUTYPoG-89" target="wkpHDkZYtQF0uhUTYPoG-85" edge="1">
                    <mxGeometry relative="1" as="geometry">
                        <mxPoint x="406" y="1010" as="targetPoint"/>
                        <mxPoint x="406" y="930" as="sourcePoint"/>
                    </mxGeometry>
                </mxCell>
                <mxCell id="wkpHDkZYtQF0uhUTYPoG-76" style="edgeStyle=none;html=1;exitX=1;exitY=0.5;exitDx=0;exitDy=0;fontSize=12;fontColor=#000000;entryX=1;entryY=0.5;entryDx=0;entryDy=0;" parent="1" source="wkpHDkZYtQF0uhUTYPoG-75" target="5" edge="1">
                    <mxGeometry relative="1" as="geometry">
                        <mxPoint x="722" y="730.3846153846152" as="targetPoint"/>
                        <Array as="points">
                            <mxPoint x="732" y="730"/>
                            <mxPoint x="732" y="60"/>
                        </Array>
                    </mxGeometry>
                </mxCell>
                <mxCell id="wkpHDkZYtQF0uhUTYPoG-75" value="Vous ressortez dehors, mais vous vous faites écraser par une porte" style="rounded=1;whiteSpace=wrap;html=1;fillColor=#FFFFFF;strokeColor=none;fontColor=#000000;labelBackgroundColor=none;" parent="1" vertex="1">
                    <mxGeometry x="586" y="700" width="120" height="60" as="geometry"/>
                </mxCell>
                <mxCell id="wkpHDkZYtQF0uhUTYPoG-79" style="edgeStyle=none;html=1;exitX=1;exitY=0.5;exitDx=0;exitDy=0;entryX=1;entryY=0.5;entryDx=0;entryDy=0;fontSize=12;fontColor=#000000;" parent="1" source="wkpHDkZYtQF0uhUTYPoG-77" target="5" edge="1">
                    <mxGeometry relative="1" as="geometry">
                        <Array as="points">
                            <mxPoint x="732" y="890"/>
                            <mxPoint x="732" y="60"/>
                        </Array>
                    </mxGeometry>
                </mxCell>
                <mxCell id="wkpHDkZYtQF0uhUTYPoG-77" value="Sous le choc après ce que vous avez vue, vous vous enfargez et vous mourrez" style="rounded=1;whiteSpace=wrap;html=1;fillColor=#FFFFFF;strokeColor=none;fontColor=#000000;labelBackgroundColor=none;" parent="1" vertex="1">
                    <mxGeometry x="586" y="860" width="120" height="60" as="geometry"/>
                </mxCell>
                <mxCell id="wkpHDkZYtQF0uhUTYPoG-80" value="&lt;span style=&quot;font-size: 12px ; background-color: rgb(255 , 255 , 255)&quot;&gt;Non&lt;/span&gt;" style="text;html=1;strokeColor=none;fillColor=none;align=center;verticalAlign=middle;whiteSpace=wrap;rounded=0;labelBackgroundColor=none;fontFamily=Helvetica;fontSize=16;fontColor=#030202;" parent="1" vertex="1">
                    <mxGeometry x="503" y="715" width="36" height="30" as="geometry"/>
                </mxCell>
                <mxCell id="wkpHDkZYtQF0uhUTYPoG-81" value="" style="edgeStyle=none;html=1;fontSize=12;fontColor=#000000;endArrow=none;" parent="1" source="wkpHDkZYtQF0uhUTYPoG-69" target="wkpHDkZYtQF0uhUTYPoG-80" edge="1">
                    <mxGeometry relative="1" as="geometry">
                        <mxPoint x="586" y="730" as="targetPoint"/>
                        <mxPoint x="466" y="730" as="sourcePoint"/>
                    </mxGeometry>
                </mxCell>
                <mxCell id="wkpHDkZYtQF0uhUTYPoG-82" value="&lt;span style=&quot;font-size: 12px ; background-color: rgb(255 , 255 , 255)&quot;&gt;Enfuyez&lt;/span&gt;" style="text;html=1;strokeColor=none;fillColor=none;align=center;verticalAlign=middle;whiteSpace=wrap;rounded=0;labelBackgroundColor=none;fontFamily=Helvetica;fontSize=16;fontColor=#030202;" parent="1" vertex="1">
                    <mxGeometry x="494" y="875" width="54" height="30" as="geometry"/>
                </mxCell>
                <mxCell id="wkpHDkZYtQF0uhUTYPoG-83" value="" style="edgeStyle=none;html=1;exitX=1;exitY=0.5;exitDx=0;exitDy=0;fontSize=12;fontColor=#000000;endArrow=none;" parent="1" target="wkpHDkZYtQF0uhUTYPoG-82" edge="1">
                    <mxGeometry relative="1" as="geometry">
                        <mxPoint x="582" y="890.3846153846152" as="targetPoint"/>
                        <mxPoint x="466" y="890" as="sourcePoint"/>
                    </mxGeometry>
                </mxCell>
                <mxCell id="wkpHDkZYtQF0uhUTYPoG-85" value="Vous découvrez la vérité sur vos origines, vous êtes une machine!" style="rounded=1;whiteSpace=wrap;html=1;labelBackgroundColor=none;fontSize=12;fontColor=#000000;strokeColor=#030303;fillColor=#FFFFFF;" parent="1" vertex="1">
                    <mxGeometry x="345" y="990" width="120" height="60" as="geometry"/>
                </mxCell>
                <mxCell id="wkpHDkZYtQF0uhUTYPoG-86" value="&lt;span style=&quot;font-size: 12px ; background-color: rgb(255 , 255 , 255)&quot;&gt;Oui&lt;/span&gt;" style="text;html=1;strokeColor=none;fillColor=none;align=center;verticalAlign=middle;whiteSpace=wrap;rounded=0;labelBackgroundColor=none;fontFamily=Helvetica;fontSize=16;fontColor=#030202;" parent="1" vertex="1">
                    <mxGeometry x="388" y="790" width="36" height="30" as="geometry"/>
                </mxCell>
                <mxCell id="wkpHDkZYtQF0uhUTYPoG-87" value="" style="edgeStyle=none;html=1;fontSize=12;fontColor=#000000;endArrow=none;" parent="1" source="wkpHDkZYtQF0uhUTYPoG-69" target="wkpHDkZYtQF0uhUTYPoG-86" edge="1">
                    <mxGeometry relative="1" as="geometry">
                        <mxPoint x="406" y="850" as="targetPoint"/>
                        <mxPoint x="406" y="770" as="sourcePoint"/>
                    </mxGeometry>
                </mxCell>
                <mxCell id="wkpHDkZYtQF0uhUTYPoG-89" value="&lt;span style=&quot;font-size: 12px ; background-color: rgb(255 , 255 , 255)&quot;&gt;Explorer&lt;/span&gt;" style="text;html=1;strokeColor=none;fillColor=none;align=center;verticalAlign=middle;whiteSpace=wrap;rounded=0;labelBackgroundColor=none;fontFamily=Helvetica;fontSize=16;fontColor=#030202;" parent="1" vertex="1">
                    <mxGeometry x="378" y="930" width="54" height="30" as="geometry"/>
                </mxCell>
                <mxCell id="wkpHDkZYtQF0uhUTYPoG-90" value="" style="edgeStyle=none;html=1;exitX=0.5;exitY=1;exitDx=0;exitDy=0;fontSize=12;fontColor=#000000;endArrow=none;" parent="1" target="wkpHDkZYtQF0uhUTYPoG-89" edge="1">
                    <mxGeometry relative="1" as="geometry">
                        <mxPoint x="405" y="990" as="targetPoint"/>
                        <mxPoint x="405" y="920" as="sourcePoint"/>
                    </mxGeometry>
                </mxCell>
                <mxCell id="wkpHDkZYtQF0uhUTYPoG-91" value="&lt;div style=&quot;color: rgb(240 , 240 , 240) ; font-size: 16px&quot;&gt;&lt;span style=&quot;background-color: rgb(255 , 255 , 255)&quot;&gt;&lt;span style=&quot;color: rgb(17 , 17 , 17)&quot;&gt;Spécificité: chaque fois qu'il meurt, sa conscience se réinitialise, d'où le recommencement à zéro.&lt;/span&gt;&lt;/span&gt;&lt;/div&gt;&lt;div&gt;&lt;span style=&quot;background-color: rgb(255 , 255 , 255)&quot;&gt;&lt;span style=&quot;color: rgb(17 , 17 , 17)&quot;&gt;&lt;br&gt;&lt;/span&gt;&lt;/span&gt;&lt;/div&gt;" style="rounded=0;whiteSpace=wrap;html=1;labelBackgroundColor=none;fontSize=12;fontColor=#000000;strokeColor=#030303;fillColor=#FFFFFF;align=left;" parent="1" vertex="1">
                    <mxGeometry x="70" y="945" width="222" height="105" as="geometry"/>
                </mxCell>
                <mxCell id="69" value="&lt;span style=&quot;color: rgb(0 , 0 , 0)&quot;&gt;&lt;font style=&quot;font-size: 9px&quot;&gt;Vous entrez dans une salle remplit de gens qui vous ressemble ( il semble dormir.)&lt;/font&gt;&lt;/span&gt;" style="rhombus;whiteSpace=wrap;html=1;fillColor=#E8E8E8;" parent="1" vertex="1">
                    <mxGeometry x="340" y="830" width="130" height="100" as="geometry"/>
                </mxCell>
                <mxCell id="71" value="&lt;span style=&quot;color: rgb(15 , 15 , 15) ; font-size: 12px ; background-color: rgb(255 , 255 , 255)&quot;&gt;Vous trouvez un laboratoire&lt;/span&gt;" style="rhombus;whiteSpace=wrap;html=1;fontSize=9;fillColor=#FCFCFC;" parent="1" vertex="1">
                    <mxGeometry x="350" y="280" width="120" height="80" as="geometry"/>
                </mxCell>
                <mxCell id="72" value="" style="shape=image;verticalLabelPosition=bottom;labelBackgroundColor=#ffffff;verticalAlign=top;aspect=fixed;imageAspect=0;image=data:image/png,iVBORw0KGgoAAAANSUhEUgAABkAAAASwCAYAAACjAYaXAAAABmJLR0QA/wD/AP+gvaeTAAAgAElEQVR4nOzZMQ0CURQAQaChxhUlGi7nAw0owcDvsIAfMEHykmVGwfZ7fD72zwHgD123+3QCwIj1ek8nAIxY+206AWDEOl+mEwBGnKYDAAAAAAAAfs0AAQAAAAAAcgwQAAAAAAAgxwABAAAAAAByDBAAAAAAACDHAAEAAAAAAHIMEAAAAAAAIMcAAQAAAAAAcgwQAAAAAAAgxwABAAAAAAByDBAAAAAAACDHAAEAAAAAAHIMEAAAAAAAIMcAAQAAAAAAcgwQAAAAAAAgxwABAAAAAAByDBAAAAAAACDHAAEAAAAAAHIMEAAAAAAAIMcAAQAAAAAAcgwQAAAAAAAgxwABAAAAAAByDBAAAAAAACDHAAEAAAAAAHIMEAAAAAAAIMcAAQAAAAAAcgwQAAAAAAAgxwABAAAAAAByDBAAAAAAACDHAAEAAAAAAHIMEAAAAAAAIMcAAQAAAAAAcgwQAAAAAAAgxwABAAAAAAByDBAAAAAAACDHAAEAAAAAAHIMEAAAAAAAIMcAAQAAAAAAcgwQAAAAAAAgxwABAAAAAAByDBAAAAAAACDHAAEAAAAAAHIMEAAAAAAAIMcAAQAAAAAAcgwQAAAAAAAgxwABAAAAAAByDBAAAAAAACDHAAEAAAAAAHIMEAAAAAAAIMcAAQAAAAAAcgwQAAAAAAAgxwABAAAAAAByDBAAAAAAACDHAAEAAAAAAHIMEAAAAAAAIMcAAQAAAAAAcgwQAAAAAAAgxwABAAAAAAByDBAAAAAAACDHAAEAAAAAAHIMEAAAAAAAIMcAAQAAAAAAcgwQAAAAAAAgxwABAAAAAAByDBAAAAAAACDHAAEAAAAAAHIMEAAAAAAAIMcAAQAAAAAAcgwQAAAAAAAgxwABAAAAAAByDBAAAAAAACDHAAEAAAAAAHIMEAAAAAAAIMcAAQAAAAAAcgwQAAAAAAAgxwABAAAAAAByDBAAAAAAACDHAAEAAAAAAHIMEAAAAAAAIMcAAQAAAAAAcgwQAAAAAAAgxwABAAAAAAByDBAAAAAAACDHAAEAAAAAAHIMEAAAAAAAIMcAAQAAAAAAcgwQAAAAAAAgxwABAAAAAAByDBAAAAAAACDHAAEAAAAAAHIMEAAAAAAAIMcAAQAAAAAAcgwQAAAAAAAgxwABAAAAAAByDBAAAAAAACDHAAEAAAAAAHIMEAAAAAAAIMcAAQAAAAAAcgwQAAAAAAAgxwABAAAAAAByDBAAAAAAACDHAAEAAAAAAHIMEAAAAAAAIMcAAQAAAAAAcgwQAAAAAAAgxwABAAAAAAByDBAAAAAAACDHAAEAAAAAAHIMEAAAAAAAIMcAAQAAAAAAcgwQAAAAAAAgxwABAAAAAAByDBAAAAAAACDHAAEAAAAAAHIMEAAAAAAAIMcAAQAAAAAAcgwQAAAAAAAgxwABAAAAAAByDBAAAAAAACDHAAEAAAAAAHIMEAAAAAAAIMcAAQAAAAAAcgwQAAAAAAAgxwABAAAAAAByDBAAAAAAACDHAAEAAAAAAHIMEAAAAAAAIMcAAQAAAAAAcgwQAAAAAAAgxwABAAAAAAByDBAAAAAAACDHAAEAAAAAAHIMEAAAAAAAIMcAAQAAAAAAcgwQAAAAAAAgxwABAAAAAAByDBAAAAAAACDHAAEAAAAAAHIMEAAAAAAAIMcAAQAAAAAAcgwQAAAAAAAgxwABAAAAAAByDBAAAAAAACDHAAEAAAAAAHIMEAAAAAAAIMcAAQAAAAAAcgwQAAAAAAAgxwABAAAAAAByDBAAAAAAACDHAAEAAAAAAHIMEAAAAAAAIMcAAQAAAAAAcgwQAAAAAAAgxwABAAAAAAByDBAAAAAAACDHAAEAAAAAAHIMEAAAAAAAIMcAAQAAAAAAcgwQAAAAAAAgxwABAAAAAAByDBAAAAAAACDHAAEAAAAAAHIMEAAAAAAAIMcAAQAAAAAAcgwQAAAAAAAgxwABAAAAAAByDBAAAAAAACDHAAEAAAAAAHIMEAAAAAAAIMcAAQAAAAAAcgwQAAAAAAAgxwABAAAAAAByDBAAAAAAACDHAAEAAAAAAHIMEAAAAAAAIMcAAQAAAAAAcgwQAAAAAAAgxwABAAAAAAByDBAAAAAAACDHAAEAAAAAAHIMEAAAAAAAIMcAAQAAAAAAcgwQAAAAAAAgxwABAAAAAAByDBAAAAAAACDHAAEAAAAAAHIMEAAAAAAAIMcAAQAAAAAAcgwQAAAAAAAgxwABAAAAAAByDBAAAAAAACDHAAEAAAAAAHIMEAAAAAAAIMcAAQAAAAAAcgwQAAAAAAAgxwABAAAAAAByDBAAAAAAACDHAAEAAAAAAHIMEAAAAAAAIMcAAQAAAAAAcgwQAAAAAAAgxwABAAAAAAByDBAAAAAAACDHAAEAAAAAAHIMEAAAAAAAIMcAAQAAAAAAcgwQAAAAAAAgxwABAAAAAAByDBAAAAAAACDHAAEAAAAAAHIMEAAAAAAAIMcAAQAAAAAAcgwQAAAAAAAgxwABAAAAAAByDBAAAAAAACDHAAEAAAAAAHIMEAAAAAAAIMcAAQAAAAAAcgwQAAAAAAAgxwABAAAAAAByDBAAAAAAACDHAAEAAAAAAHIMEAAAAAAAIMcAAQAAAAAAcgwQAAAAAAAgxwABAAAAAAByDBAAAAAAACDHAAEAAAAAAHIMEAAAAAAAIMcAAQAAAAAAcgwQAAAAAAAgxwABAAAAAAByDBAAAAAAACDHAAEAAAAAAHIMEAAAAAAAIMcAAQAAAAAAcgwQAAAAAAAgxwABAAAAAAByDBAAAAAAACDHAAEAAAAAAHIMEAAAAAAAIMcAAQAAAAAAcgwQAAAAAAAgxwABAAAAAAByDBAAAAAAACDHAAEAAAAAAHIMEAAAAAAAIMcAAQAAAAAAcgwQAAAAAAAgxwABAAAAAAByDBAAAAAAACDHAAEAAAAAAHIMEAAAAAAAIMcAAQAAAAAAcgwQAAAAAAAgxwABAAAAAAByDBAAAAAAACDHAAEAAAAAAHIMEAAAAAAAIMcAAQAAAAAAcgwQAAAAAAAgxwABAAAAAAByDBAAAAAAACDHAAEAAAAAAHIMEAAAAAAAIMcAAQAAAAAAcgwQAAAAAAAgxwABAAAAAAByDBAAAAAAACDHAAEAAAAAAHIMEAAAAAAAIMcAAQAAAAAAcgwQAAAAAAAgxwABAAAAAAByDBAAAAAAACDHAAEAAAAAAHIMEAAAAAAAIMcAAQAAAAAAcgwQAAAAAAAgxwABAAAAAAByDBAAAAAAACDHAAEAAAAAAHIMEAAAAAAAIMcAAQAAAAAAcgwQAAAAAAAgxwABAAAAAAByDBAAAAAAACDHAAEAAAAAAHIMEAAAAAAAIMcAAQAAAAAAcgwQAAAAAAAgxwABAAAAAAByDBAAAAAAACDHAAEAAAAAAHIMEAAAAAAAIMcAAQAAAAAAcgwQAAAAAAAgxwABAAAAAAByDBAAAAAAACDHAAEAAAAAAHIMEAAAAAAAIMcAAQAAAAAAcgwQAAAAAAAgxwABAAAAAAByDBAAAAAAACDHAAEAAAAAAHIMEAAAAAAAIMcAAQAAAAAAcgwQAAAAAAAgxwABAAAAAAByDBAAAAAAACDHAAEAAAAAAHIMEAAAAAAAIMcAAQAAAAAAcgwQAAAAAAAgxwABAAAAAAByDBAAAAAAACDHAAEAAAAAAHIMEAAAAAAAIMcAAQAAAAAAcgwQAAAAAAAgxwABAAAAAAByDBAAAAAAACDHAAEAAAAAAHIMEAAAAAAAIMcAAQAAAAAAcgwQAAAAAAAgxwABAAAAAAByDBAAAAAAACDHAAEAAAAAAHIMEAAAAAAAIMcAAQAAAAAAcgwQAAAAAAAgxwABAAAAAAByDBAAAAAAACDHAAEAAAAAAHIMEAAAAAAAIMcAAQAAAAAAcgwQAAAAAAAgxwABAAAAAAByDBAAAAAAACDHAAEAAAAAAHIMEAAAAAAAIMcAAQAAAAAAcgwQAAAAAAAgxwABAAAAAAByDBAAAAAAACDHAAEAAAAAAHIMEAAAAAAAIMcAAQAAAAAAcgwQAAAAAAAgxwABAAAAAAByDBAAAAAAACDHAAEAAAAAAHIMEAAAAAAAIMcAAQAAAAAAcgwQAAAAAAAgxwABAAAAAAByDBAAAAAAACDHAAEAAAAAAHIMEAAAAAAAIMcAAQAAAAAAcgwQAAAAAAAgxwABAAAAAAByDBAAAAAAACDHAAEAAAAAAHIMEAAAAAAAIMcAAQAAAAAAcgwQAAAAAAAgxwABAAAAAAByDBAAAAAAACDHAAEAAAAAAHIMEAAAAAAAIMcAAQAAAAAAcgwQAAAAAAAgxwABAAAAAAByDBAAAAAAACDHAAEAAAAAAHIMEAAAAAAAIMcAAQAAAAAAcgwQAAAAAAAgxwABAAAAAAByDBAAAAAAACDHAAEAAAAAAHIMEAAAAAAAIMcAAQAAAAAAcgwQAAAAAAAgxwABAAAAAAByDBAAAAAAACDHAAEAAAAAAHIMEAAAAAAAIMcAAQAAAAAAcgwQAAAAAAAgxwABAAAAAAByDBAAAAAAACDHAAEAAAAAAHIMEAAAAAAAIMcAAQAAAAAAcgwQAAAAAAAgxwABAAAAAAByDBAAAAAAACDHAAEAAAAAAHIMEAAAAAAAIMcAAQAAAAAAcgwQAAAAAAAgxwABAAAAAAByDBAAAAAAACDHAAEAAAAAAHIMEAAAAAAAIMcAAQAAAAAAcgwQAAAAAAAgxwABAAAAAAByDBAAAAAAACDHAAEAAAAAAHIMEAAAAAAAIMcAAQAAAAAAcgwQAAAAAAAgxwABAAAAAAByDBAAAAAAACDHAAEAAAAAAHIMEAAAAAAAIMcAAQAAAAAAcgwQAAAAAAAgxwABAAAAAAByDBAAAAAAACDHAAEAAAAAAHIMEAAAAAAAIMcAAQAAAAAAcgwQAAAAAAAgxwABAAAAAAByDBAAAAAAACDHAAEAAAAAAHIMEAAAAAAAIMcAAQAAAAAAcgwQAAAAAAAgxwABAAAAAAByDBAAAAAAACDHAAEAAAAAAHIMEAAAAAAAIMcAAQAAAAAAcgwQAAAAAAAgxwABAAAAAAByDBAAAAAAACDHAAEAAAAAAHIMEAAAAAAAIMcAAQAAAAAAcgwQAAAAAAAgxwABAAAAAAByDBAAAAAAACDHAAEAAAAAAHIMEAAAAAAAIMcAAQAAAAAAcgwQAAAAAAAgxwABAAAAAAByDBAAAAAAACDHAAEAAAAAAHIMEAAAAAAAIMcAAQAAAAAAcgwQAAAAAAAgxwABAAAAAAByDBAAAAAAACDHAAEAAAAAAHIMEAAAAAAAIMcAAQAAAAAAcgwQAAAAAAAgxwABAAAAAAByDBAAAAAAACDHAAEAAAAAAHIMEAAAAAAAIMcAAQAAAAAAcgwQAAAAAAAgxwABAAAAAAByDBAAAAAAACDHAAEAAAAAAHIMEAAAAAAAIMcAAQAAAAAAcgwQAAAAAAAgxwABAAAAAAByDBAAAAAAACDHAAEAAAAAAHIMEAAAAAAAIMcAAQAAAAAAcgwQAAAAAAAgxwABAAAAAAByDBAAAAAAACDHAAEAAAAAAHIMEAAAAAAAIMcAAQAAAAAAcgwQAAAAAAAgxwABAAAAAAByDBAAAAAAACDHAAEAAAAAAHIMEAAAAAAAIMcAAQAAAAAAcgwQAAAAAAAgxwABAAAAAAByDBAAAAAAACDHAAEAAAAAAHIMEAAAAAAAIMcAAQAAAAAAcgwQAAAAAAAgxwABAAAAAAByDBAAAAAAACDHAAEAAAAAAHIMEAAAAAAAIMcAAQAAAAAAcgwQAAAAAAAgxwABAAAAAAByDBAAAAAAACDHAAEAAAAAAHIMEAAAAAAAIMcAAQAAAAAAcgwQAAAAAAAgxwABAAAAAAByDBAAAAAAACDHAAEAAAAAAHIMEAAAAAAAIMcAAQAAAAAAcgwQAAAAAAAgxwABAAAAAAByDBAAAAAAACDHAAEAAAAAAHIMEAAAAAAAIMcAAQAAAAAAcgwQAAAAAAAgxwABAAAAAAByDBAAAAAAACDHAAEAAAAAAHIMEAAAAAAAIMcAAQAAAAAAcgwQAAAAAAAgxwABAAAAAAByDBAAAAAAACDHAAEAAAAAAHIMEAAAAAAAIMcAAQAAAAAAcgwQAAAAAAAgxwABAAAAAAByDBAAAAAAACDHAAEAAAAAAHIMEAAAAAAAIMcAAQAAAAAAcgwQAAAAAAAgxwABAAAAAAByDBAAAAAAACDHAAEAAAAAAHIMEAAAAAAAIMcAAQAAAAAAcgwQAAAAAAAgxwABAAAAAAByDBAAAAAAACDHAAEAAAAAAHIMEAAAAAAAIMcAAQAAAAAAcgwQAAAAAAAgxwABAAAAAAByDBAAAAAAACDHAAEAAAAAAHIMEAAAAAAAIMcAAQAAAAAAcgwQAAAAAAAgxwABAAAAAAByDBAAAAAAACDHAAEAAAAAAHIMEAAAAAAAIMcAAQAAAAAAcgwQAAAAAAAgxwABAAAAAAByDBAAAAAAACDHAAEAAAAAAHIMEAAAAAAAIMcAAQAAAAAAcgwQAAAAAAAgxwABAAAAAAByDBAAAAAAACDHAAEAAAAAAHIMEAAAAAAAIMcAAQAAAAAAcgwQAAAAAAAgxwABAAAAAAByDBAAAAAAACDHAAEAAAAAAHIMEAAAAAAAIMcAAQAAAAAAcgwQAAAAAAAgxwABAAAAAAByDBAAAAAAACDHAAEAAAAAAHIMEAAAAAAAIMcAAQAAAAAAcgwQAAAAAAAgxwABAAAAAAByDBAAAAAAACDHAAEAAAAAAHIMEAAAAAAAIMcAAQAAAAAAcgwQAAAAAAAgxwABAAAAAAByDBAAAAAAACDHAAEAAAAAAHIMEAAAAAAAIMcAAQAAAAAAcgwQAAAAAAAgxwABAAAAAAByDBAAAAAAACDHAAEAAAAAAHIMEAAAAAAAIMcAAQAAAAAAcgwQAAAAAAAgxwABAAAAAAByDBAAAAAAACDHAAEAAAAAAHIMEAAAAAAAIMcAAQAAAAAAcgwQAAAAAAAgxwABAAAAAAByDBAAAAAAACDHAAEAAAAAAHIMEAAAAAAAIMcAAQAAAAAAcgwQAAAAAAAgxwABAAAAAAByDBAAAAAAACDHAAEAAAAAAHIMEAAAAAAAIMcAAQAAAAAAcgwQAAAAAAAgxwABAAAAAAByDBAAAAAAACDHAAEAAAAAAHIMEAAAAAAAIMcAAQAAAAAAcgwQAAAAAAAgxwABAAAAAAByDBAAAAAAACDHAAEAAAAAAHIMEAAAAAAAIMcAAQAAAAAAcgwQAAAAAAAgxwABAAAAAAByDBAAAAAAACDHAAEAAAAAAHIMEAAAAAAAIMcAAQAAAAAAcgwQAAAAAAAgxwABAAAAAAByDBAAAAAAACDHAAEAAAAAAHIMEAAAAAAAIMcAAQAAAAAAcgwQAAAAAAAgxwABAAAAAAByDBAAAAAAACDHAAEA+LJ330FSlWnDh+/JDFkyAioqKooKBhAjZlRUzDmxht1lVUxrds1p1TW/hl0jmDEioghGDCCggKIgQYIoSdLAABO+P/wcbYek9NB4vK6qqeJ5+vTpe6qsEebXfQ4AAACQOAIIAAAAAACQOAIIAAAAAACQOAIIAAAAAACQOAIIAAAAAACQOAIIAAAAAACQOAIIAAAAAACQOAIIAAAAAACQOAIIAAAAAACQOAIIAAAAAACQOAIIAAAAAACQOAIIAAAAAACQOAIIAAAAAACQOAIIAAAAAACQOAIIAAAAAACQOAIIAAAAAACQOAIIAAAAAACQOAIIAAAAAACQOAIIAAAAAACQOAIIAAAAAACQOAIIAAAAAACQOAIIAAAAAACQOAIIAAAAAACQOAIIAAAAAACQOAIIAAAAAACQOAIIAAAAAACQOAIIAAAAAACQOAIIAAAAAACQOAIIAAAAAACQOAIIAAAAAACQOAIIAAAAAACQOAIIAAAAAACQOAIIAAAAAACQOAIIAAAAAACQOAIIAAAAAACQOAIIAAAAAACQOAIIAAAAAACQOAIIAAAAAACQOAIIAAAAAACQOAIIAAAAAACQOAIIAAAAAACQOAIIAAAAAACQOAIIAAAAAACQOAIIAAAAAACQOAIIAAAAAACQOAIIAAAAAACQOAIIAAAAAACQOAIIAAAAAACQOAIIAAAAAACQOAIIAAAAAACQOAIIAAAAAACQOAIIAAAAAACQOAIIAAAAAACQOAIIAAAAAACQOAIIAAAAAACQOAIIAAAAAACQOAIIAAAAAACQOAIIAAAAAACQOAIIAAAAAACQOAIIAAAAAACQOAIIAAAAAACQOAIIAAAAAACQOAIIAAAAAACQOAIIAAAAAACQOAIIAAAAAACQOAIIAAAAAACQOAIIAAAAAACQOAIIAAAAAACQOAIIAAAAAACQOAIIAAAAAACQOAIIAAAAAACQOAIIAAAAAACQOAIIAAAAAACQOAIIAAAAAACQOAIIAAAAAACQOAIIAAAAAACQOAIIAAAAAACQOAIIAAAAAACQOAIIAAAAAACQOAIIAAAAAACQOAIIAAAAAACQOAIIAAAAAACQOAIIAAAAAACQOAIIAAAAAACQOAIIAAAAAACQOAIIAAAAAACQOAIIAAAAAACQOAIIAAAAAACQOAIIAAAAAACQOAIIAAAAAACQOAIIAAAAAACQOAIIAAAAAACQOAIIAAAAAACQOAIIAAAAAACQOAIIAAAAAACQOAIIAAAAAACQOAIIAAAAAACQOAIIAAAAAACQOAIIAAAAAACQOAIIAAAAAACQOAIIAAAAAACQOAIIAAAAAACQOAIIAAAAAACQOAIIAAAAAACQOAIIAAAAAACQOAIIAAAAAACQOAIIAAAAAACQOAIIAAAAAACQOAIIAAAAAACQOAIIAAAAAACQOAIIAAAAAACQOAIIAAAAAACQOAIIAAAAAACQOAIIAAAAAACQOAIIAAAAAACQOAIIAAAAAACQOAIIAAAAAACQOAIIAAAAAACQOAIIAAAAAACQOAIIAAAAAACQOAIIAAAAAACQOAIIAAAAAACQOAIIAAAAAACQOAIIAAAAAACQOAIIAAAAAACQOAIIAAAAAACQOAIIAAAAAACQOAIIAAAAAACQOAIIAAAAAACQOAIIAAAAAACQOAIIAAAAAACQOAIIAAAAAACQOAIIAAAAAACQOAIIAAAAAACQOAIIAAAAAACQOAIIAAAAAACQOAIIAAAAAACQOAIIAAAAAACQOAIIAAAAAACQOAIIAAAAAACQOAIIAAAAAACQOAIIAAAAAACQOAIIAAAAAACQOAIIAAAAAACQOAIIAAAAAACQOAIIAAAAAACQOAIIAAAAAACQOAIIAAAAAACQOAIIAAAAAACQOAIIAAAAAACQOAIIAAAAAACQOAIIAAAAAACQOAIIAAAAAACQOAIIAAAAAACQOAIIAAAAAACQOAIIAAAAAACQOAIIAAAAAACQOAIIAAAAAACQOAIIAAAAAACQOAIIAAAAAACQOAIIAAAAAACQOAIIAAAAAACQOAIIAAAAAACQOAIIAAAAAACQOAIIAAAAAACQOAIIAAAAAACQOAIIAAAAAACQOAIIAAAAAACQOAIIAAAAAACQOAIIAAAAAACQOAIIAAAAAACQOAIIAAAAAACQOAIIAAAAAACQOAIIAAAAAACQOAIIAAAAAACQOAIIAAAAAACQOAIIAAAAAACQOAIIAAAAAACQOAIIAAAAAACQOAIIAAAAAACQOAIIAAAAAACQOAIIAAAAAACQOAIIAAAAAACQOAIIAAAAAACQOAIIAAAAAACQOAIIAAAAAACQOAIIAAAAAACQOAIIAAAAAACQOAIIAAAAAACQOAIIAAAAAACQOAIIAAAAAACQOAIIAAAAAACQOAIIAAAAAACQOAIIAAAAAACQOAIIAAAAAACQOAIIAAAAAACQOAIIAAAAAACQOAIIAAAAAACQOAIIAAAAAACQOAIIAAAAAACQOAIIAAAAAACQOAIIAAAAAACQOAIIAAAAAACQOAIIAAAAAACQOAIIAAAAAACQOAIIAAAAAACQOAIIAAAAAACQOAIIAAAAAACQOAIIAAAAAACQOAIIAAAAAACQOAIIAAAAAACQOAIIAAAAAACQOAIIAAAAAACQOAIIAAAAAACQOAIIAAAAAACQOAIIAAAAAACQOAIIAAAAAACQOAIIAAAAAACQOAIIAAAAAACQOAIIAAAAAACQOAIIAAAAAACQOAIIAAAAAACQOAIIAAAAAACQOAIIAAAAAACQOAIIAAAAAACQOAIIAAAAAACQOAIIAAAAAACQOAIIAAAAAACQOAIIAAAAAACQOAIIAAAAAACQOAIIAAAAAACQOAIIAAAAAACQOAIIAAAAAACQOAIIAAAAAACQOAIIAAAAAACQOAIIAAAAAACQOAIIAAAAAACQOAIIAAAAAACQOAIIAAAAAACQOAIIAAAAAACQOAIIAAAAAACQOAIIAAAAAACQOAIIAAAAAACQOAIIAAAAAACQOAIIAAAAAACQOAIIAAAAAACQOAIIAAAAAACQOAIIAAAAAACQOAIIAAAAAACQOAIIAAAAAACQOAIIAAAAAACQOAIIAAAAAACQOAIIAAAAAACQOAIIAAAAAACQOAIIAAAAAACQOAIIAAAAAACQOAIIAAAAAACQOAIIAAAAAACQOAIIAAAAAACQOAIIAAAAAACQOAIIAAAAAACQOAIIAAAAAACQOAIIAAAAAACQOAIIAAAAAACQOAIIAAAAAACQOAIIAAAAAACQOAIIAAAAAACQOAIIAAAAAACQOLmZHgAAAPhjev+991LWG7dqFU2aNMnQNAAAAKkEEAAA4He56YbrU9a5ubmxy667xTHHHRdNmzbN0FQAAAA/EkAAAI/L598AACAASURBVIC0KCkpibcGDoj33n0ndtl1tzj2+ON9IgQAAMgY9wABAADS6qcQ8rfTT4t77rozZs2alemRAACAPyEBBAAAqBIlJSXR77XX4tRTTo577rozZgshAADAGiSAsFap06BF1G20fsUXAAB/HBtssMEy938KIaef+pd46L//jblz567hyQAAgD8j9wBhrbLTIedGfmHNivWLd56WwWkAAPgtrrvxphg/blw8+sjD8fXYsZUeX7x4cbzwfO94re+rsfe++8aRRx0Vdeuuk4FJAQCAPwMBBAAASJu27dpF23bt4tPhw+ORhx+KcV9/XemY4uLieOWll6L/G29Ely5d4tDDj4hatWplYFoAACDJBBAAyLCxX4+PUaNGx/wFRdGkcaNo336bqFundqbHAlgtbdu1i/+0vTOGDB4cvR5/LMaPH1/pmOJFi+K5Z5+NPn36RJcuXeKwI46MmjVrLuNsAGuXtl0OS1lPHjksZn0zIUPTAADLI4CQNnufdP1qnyOvWvWVnrP/o5es9usAVKWFCxfF0GGfxYSJk6JaQUHstGP7aNasaaXjRoz4PM7scUkMHjIsZb+gID+OPfqwuPbqi6NePZeGAf64srKyon2HDrF9+/Yx6P33o1fPx2PK5MmVjvsphLzap08c0KVLHH7kUVGjRo0MTAywak6+v1fKurRkaQx78dl4/bZrY+Y3lYMvAJAZAghpU6NOwz/EOQGq0n0PPBo33HR7TJ8+s2IvNzc3Tj/1hLjhussjPz8vIiIGfTA4Djrk+Fi4cFGlcyxevCQefvTJ+ODDIfHqy08sM54A/JFkZWXFzrvsEjvtvHMMev/96PnYozF16tRKxy36/yHk9X79ostBB8XBXQ8RQoA/hJzcvNj+8GNjm65HxLAXn41+t13jEyEAsBbIzvQAAJAE5eXlcc55l8U5512WEj8iIkpKSuLe+x6O7mddGBERC4qK4sRTui8zfvzSV2O+jn33PzKKFi6ssrkB1qSfQsg9990fZ59zTjRu0mSZx82fPz+e7NUrzjj1L/FC795reEqA3++nEHLJO5/FkTfdE3WarJvpkQDgT00AAYA0eOSxp+K+Bx5d4TE9ez0b7773YfR6ond8++13q3TeceMnxg033pGOEQHWGjk5ObHX3vvEfQ88GOecd340bbrsT7rNnTs3Hvrff9fwdACrLycvP3Y8/i9xxUdf/hhCGvtELwBkgktgUaVmTB4dRXNnrPLxLVp3jJycvIr11LGfVMVYAGk1Z+68uOyKG1bp2J69no3vp6f+XGy9WavYa69OkZ2dFe+9/1EMGzYi5fG77nkwzvrHadGoUYO0zQywNsjNzY099twzdt1tt3izf/94+sknYubMmSt/IsBaZtqXo6LpZm0q7f8UQrY77JgY9NgDMeCeW2LBLD/nAGBNEUCoUnUbbxDfTfgsxn82MMrLy1d6/LobbRM5hT8HkCGv3V+V4wGkRZ8+r8fs2T+k7B1/3BFxyknHRFZWxBNPPh//fahnRES88GLflOPO7fG3uPrKCyMnJ6di7/Y77o+LL7u2Yr1kydLo0/eN6HbysVX4XQBkTm5ubnTeb7/Ya++9483+/ePJJ3rF7FmzMj0WwCq7+4h9o9kWW8eBF18TLbbettLj+YXVY/czesROJ5wWHz35SPS/66aYP2N6BiYFyKyCatVi8y22jAYNG0Vx8aIYNeKz+GG2v/dRdQQQ0mbIa/fHVp2OjYLCWhV7efmFseWuR0ezVtvH8IGPxfxZ32ZwQoCq8XKf11PWRxx+UDx4320V6447bB8REf99qGcsKCqq2N91l45x7dUXR1ZWVsrze5x9Rnz48Sfx8iv9Kvb69n1TAAES76cQsudee8WAN9+MJ3v1jNmzZ2d6LIBVMua9gXHrewNjk132iIMuvS6ab9mu0jH51WvErn/pHh2OPinef+S+GHDvbbFwjp9zwB9X9eo1Ypvt20f9Bg1j1swZMWzI4Fi4sKjScQXVqkX3s8+PI445IWrVrl2xX1ZaGm+81iduvv7KmP7dql0qGn4L9wAhbaaO/STefOyymDjq3UqP1Wu6Uex+zBWxxU6HpVziCiAJxowZl7K+5KIelY658IIzIy8v9X0Hfzvj5Erx4yd/Pf2klPX4CRNXc0qAP468vLzovN9+cf9//xcnd+uW6XEAfpMx7w2MW/fbMR48+bCY+vlnyzymoEbN2LP7+fGvwWPiwEuujep11lnDUwKsnqysrDjmhFPi9fcGx30PPxHX/fuOuO/hJ2LgR8Oj2xndIzv75187r1Ovfjz9Ur/odkb3lPgREZGdkxOduxwcTz7fN9Zbv+Wa/jb4ExBASKulixfGpwMfjw9fuiMWzU99F0t2dk602rZz7HH8VdGwResMTQiQfr+8p0dhYbXYdJONKx3TvPm60WrjDVP2OrSvfHmEn7Rrt9WvXsO1ooE/n2rVqsVhhx+R6TEAfrPy8vL4vP+rcUvnjvHIGcfF919/tczjfh1CCmvXXcOTAvw+F1x6ZVx61fWxzjr1UvZr1qwV5154WVx61fUREZGdnR13PfBwbNxq0xWer3GTpvHwk70rBRJYXQIIVeL7b0bFm49fHmOH9qt0748adRrGToecE9vu0y3yC2tmaEKA9CkuLq74c82aNZf7qY711muesm7YsP5yz1mQn5+yLiqq/BFigEw7/IgjUr7yf/WzC+DPrrysLD7t0ztu3L1dPHLGcTFj/NhlHldQs1bs2f38uPzDL6LzeZdFtVp11vCkAKvuwEMOjxO7nb7CY4467qTYdfe94qBDj4i222y/Sudt3KRp/P2s89MxIlRwDxCqTGnJkvh8UO+YNv7TaLfnSVGrXtNfPJoVLTbrGI3W2yJGDXouJo/+MGNzAqyuhg0bxOTJUyMiYubMWVFcvDiqVSuodFxhYWHKOjd3+f8b/mbS5EqvAbC2OekUl6cCWBU/hZAR/V6K7Q87NvbpcUnUX2+DSsdVr1svOp97Wex80l9j4L23xsD7/pOBaQGWr6BatehxwSWrdOzxJ58av35/4PTvv4t33xoQC+bPi41abRo77dop5XJZx5x4cjz0wD0xY/r36RybPzGfAKHKzZ42Lt564qr4fFDvKCstSXmsoHrt2HbvbrHzoedFzbqNMzQhwOpptu7Pgbe8vDz6vT5gtc858K33U9aNGzdc7XMCAJBZZSUl8fHTj8X1u2wZvc7+S8z8Zvwyj6tZv0EcdPkNa3g6gJXrtMfe0bhJ05S9fn1eir93Oz5OP+noeP6ZJyquBtNhx52ifcedKo57qfczsd/uHePKS86PW264Ov7W7bg46aiuMW/u3IpjcnPzYrc99loz3wx/CgIIa0RZWWmMHdov3nn6+pgz/ZtKjzdovlnsfszlkVtQuIxnA6zddu+0U8r65lvvjqVLSyod9+D9t8W0yaMqvpZnQVFR3HHXAyl7O6zgfiEAf3RFRUWxZMmSTI8BsMaUliyNIc/1iht23TqeubB7zJk2NdMjAayS3ffaN2X9wrNPxvln/TXefXtAfPDeO3HFRefFf//vzoiIyMnJjZycH6988NmwT+Lyi86Nxb+4hHRExPChQ+KGqy9L2dt1dwGE9BFAWKPmzpwc7zxzfYx896koXbo45bGcvILIzs7J0GQAv99BXVL/Ajh8+MjY/8Cjo0/f/in7NapXj7p161R8LcsXo8dE10NPjEmTpqTsdzlgn/QODVCFViVojBwxIq675uo44tBD4ugjDo/Duh4cJ59wfDxw/30xbdq0NTQpQGaVliyND3r+L67p2DqeubB7zP3ezz9g7bbZFm0q/lxSsjTuuu3mSsc8eO9dMeeHH1L2/nf/PVFWWrrMc/Z9+cWU49fboGWapgX3ACEDysvKYtynA+K7CSOi7R4nRMMWrTM9EsBqadt2y+i87x7R7/WBFXvvD/o4Ro4aHd9N+XyVz3PVNf+OG2++s9L+ZptuHDvv1CEtswJUldFffBHPPftMfDp8eEX8aNGiRex3QJfocuCBkfWLC0A//uij8ewzT1dcHuEns2bNildeeilef+21+MdZZ8fue+yxRr8HgEwpXbokPuj5vxj8TM9of+Tx0fm8y6N2oyaZHgugkvoNfr4885TJk2P6999VOmbhwqIY/fmI6LjzbhV7wz75eLnnLC0tiS9Hj4oddtyl0mvA6vIJEDKmaO6MGPTCf2Jo/4diSXFRpscBWC03Xn951KhefbXOUVKy7HfD3HbLNSu8YTpApj3Zq1dceMH5Mfjjj1M++TF58uR44L7/iztu//kmvn379Ilnnn6qUvz4pSVLlsR/br0lRo/+okrnBljblCxZHB/0/F9cu9MW8cp1l2Z6HIBKatasVfHnH2bPWu5xs3/12IL5C1Z43oVFP/9u8JevAatLACHDymPy6A9jYM9/xbdfD830MAC/26abbBzPPfNQFBZWS+t5L7/0vNi9085pPSdAOvV99dV4olfPFQaNAf37x5v934hFixbFY48+skrnLS8vj7vuuCNKSirfUwkg6ZYsLIoB996a6TEAKvll9Fi3WfPlHrdusxYp6wYNV/ypjnr16y/zNWB1eTspa4XihXNjcN/7onqt+pGVrcsBf0yddtsp3ur/Qpx/4ZXx/qDlf7x3VRQU5Mc1V14UZ/7jtDRNB5B+8+fNi4f+++AqHfvs089EQUG1KCpK/eRvs+bNo2HDhvH9d99VuvfH5EmTYvDHH8WOOwnBwNplwD23pKyX/uqmvgBJNXPG9GjU+MdL9DVq3CQ2b7NVfDFqRMox6zZrHltsuXXK3i6d9ohnn+y5zHPWrFkrWm++ZcV61syZaZ6aPzMBhLXKwvkKL/DHtvXWbaJ/v+di6tRp8dWYr3/TcxvUrxc779Qhdt6pQ5x80jGx/nrLfzcNwNpg4MCBsXjx4pS9rKysWH+DDaJJkyYxedKkmDp1akREfPvt1Hjm6acqjqtVu3Zc8M8Lo90221Ts9X/jjbj7zjuirKysYm/wxx8LIMBa55XrL8v0CAAZMXTwx7F5m60i4se/9110xTVx+klHR/GiRRERkZeXF5dedX3k5+enPO/07j3i9b6vxLy5cyud86RT/xoF1X6+msJXo1f9XpqwMgIIAFSBZs2aRrNmTX/Tc84+6/Q4+6zTq2gigPQbOeKzlHWNGjXiggsvim23265ir1/fvnHvPXdHeXl5TJwwISJ+/MfypZddHlu0aZPy/L332SfGjxsXfV55uWJv4sSJVfgdAFS9rOzsKKxVJyIiFs79IcPTAKyetwe8ESd0+/lKBdts1z5eev2dePP1vlFWWhq77905Nmi5YUT8eDP08vLyqFGjZjRdt1n8r+dzcdk/e1QEjvz8/Dix2xlxxj96pLzGOwP7r7lviMQTQKhy2dk5UVa27Bv7RkTk5RdG9doNorDWOpGVnRPFRXNi3sypUVqyZLnPAQAg8yaMH5+yPvGkk1PiR0RE5/33j5GjRsa7b79dsbflVltVih8/2bXTbikBZO6cOWmcGKBq1VinXmx9wKGxwbYdosVW7aJeiw2ioEbNlGMWL5gfMyaOiykjP42Jwz6OEa++KIwAfxiDPxoUo0Z8Gm22alux16x5izjpL2dUOvadAf0jKzs7Oh9wUEREtN6iTfR+9c2YMumbWLBgQbRYf/2o8aufkXPnzIlB775d6VzwewkgVJl1N942Ntxq98jOyY13n72x0uMNmm0Sm7bvEg2abxpZWan3/SgtXRrfTxwZY4a8FnOme9cfAMDaaP78+Snr9h06LPO4LgcemBJAlhc/IiIaN2qcsp67jMskAKxt6q/fMrpcdHVs2fmgyM0vWOGxBTVrRfM2baN5m7axwzEnx2HX/idGvvZSvHrTv2LWJP/+BdZu5eXlcePVV8QjT/WO3Ny85R5XWloSDz1wT9SuXbcigPyk+XrrL/d599z+71i4sGi5j8Nv5W7TpF1ufrXY8eAe0X7/v0aD5ptGdk5OyuPZObmxxc6Hx86HnR8NW7SuFD8iInJy8mLdjbaJ3Y66JLbY6bDIyspaU+MDALCKin9x09/c3NyoV7/+Mo9r3rxFyrpWrdrLPWfdddZJ+bvf0qVLV3NKgKq126n/iAsHDI12Bx2x0vixLHkF1WKbrkfFhQOHxW6nnVkFEwKk16fDhsSFPbpHaWnJMh8vLy+P6/51SYz+fFR8/OH78cKzT67SeYd89EE83euxdI4KPgFCeuXkFcSOXc+Jek02XO4x7fY4MVq07rhK58vKyopW23aOguq1Y1j/h9M1JkBa/eOsi1LWd99Z+VNvv8cBBx2bsn715SfScl6AdCkvL6/4c0FBQWRnL/v9VbVq1UpZr+i9LdnZ2ZGdnR2lpcu/hCrA2mK/8y+Pfc+5NC3nyi+sHodc+e+o3ahJvHJdes4JUFVe7/tKTPpmQpx53kXRoePOUVBQEGVlZfHZ8KFx1203xeAPB1Uce+Ul/4zc3Lw48JDDl3u+IR99EH8/9YTlRhX4vQQQ0mqz9l1WGD9abtlplePHL63XeseYPW1cTBz17uqMB1Al/vdwr5T1igLIb4kaA996b/UGAwCgymx76NErjB+lS5fEzInjY97072Lp4uLIysqO3Pz8qN24aTRYv2Xk5OUv83l7/v28+PaLkTH0haeqanSAtBj9+aj4e7fjIzsnJxo1ahxz586JRQsXVjqutLQkLj7vzHi97ytx7IndYrsOHSM/Pz/Kyspi7Fej45knHo/nnuolflAlBBDSpnqt+rFRu70r7c+ZPjkifvx0SOuOXSs9vnDezPjm8/dj7qwpEeXlUXOdprH+5jtGrXrrphy3+Y6HxpQxg6NkSXGlcwD8UYgaAAB/fNVq1YmuV9xcab94/twY9NiDMeK1l2LyiGFRtpxPs2Xn5sb6bbeLrbscGh2P7VbpRuld/3VzfP7ma1E8332QgLVfWWlpfDft25Ue9/aAN+LtAW9EVlZW1K27TiwqXhTFixatgQn5MxNASJt1W20X2dk/3++jvLw8hr7xv5jy1ccREdF4vS0iv1qNlOdM+mJQfPZ2rygt+cW1nSeMiHGf9o/Ndzw0Wm2zb8V2frUa0XyTDjFx1DtV+40AAADACmy9/8FRq2GjlL3P3+wbvc4+NRbOmb3S55eVlMSETz6KCZ98FAPuuSVOvPfxaLXjbhWP12rYKLbe/+D4+GnXwgeSp7y8PH74YeU/KyEdBBDSpknLrVLWU8cOqYgfERG16jVNeXzW1DExfMBjUV5eVulc5WVl8fn7z0X1mvWi2Sbb/+I1thRAAADWQqWlpfH+e6v2Kbfx48at8Nhf3lsEYG201X4Hp6zHD/4gHvrLUalv7ltF82dMjwdO6Bo9Xn47mm2xdcX+lp0PEkAAYDUJIKRN9Vr1U9aTv/woZV1Yq17K+qtP+i4zfvzSl4P7pASQOg1arOaUAABUheLi4rjphutX6dj+b7wR/d94o4onAqg6jVttlrLue/OVvyt+/GRp8aJ4/fYbotuDP9/349evAQD8dtmZHoDkKKhRO2W9cN6slPWv790x5/uJKz3n/NnfxtLFP988Kb96rdWYEAAAAFZf7UZNKv5cXl4e3wwfstrnnPjJh8t9DQDg9xFASJ+y1E9z5OSmfsBo4byZKetVvbRBWdkvbhrnaggAAABk2Bq5VJ/LAQLAanMJLNKmuGhu1Kj7803g6jZaP+ZMn1Sxnjbhs9hyt6MjK+vH7la34XoxY8qXKzxntep1oqCwZsV68aJ5aZ4aAAAAfpv5M76Pgho//ls1KysrNti2Q4wd9PZqnbPl9jumrOdN/261zgdQFUaNn7ZGXqfNhk1XfhCsAgGEtPnh+wkpAWTDrfeMSaM/jLLSkoiIWDR/dkwb92msu/E2ERGx8bb7xowpX8WKPtaxYds9IyKrYj1v5pQqmR0AgN+u+5lnZXoEgIz4bszoaLDBRhXrAy68Ku46bO8oXbrkd50vv7B67HvOJamvMXbFbxgEAFZOACFtpowdEs037VCxrl2/WbTb86QY/uYjFZex+uztXlGv6UZRrUadaLx+m9i8Y9f44sMXY1kRpPmmHaLVtp1T9mZMHl2l3wMAAKuu8377ZXoEgIwY2e/laLNPl4r1Btt2iNMe6R2Pn3lyFM2etYJnVla7UeM48d6esW7rLVNf47WX0jIrAPyZuQcIafP9hJExd+bklL0Wm+0QnY65PNbdeJvIzsmNxQvnxYcv3RFFc6ZHRMQm2+8fOx92fjTdqF1Uq1k3CqrXjoYtWsf2+50R2+17amRl/fzpj5IlxTH5y4/W6PcEAAAAv/ZZ35di/ozpKXubddo7rvjwy+h65c2x0Q47R05e/nKfn5OXHxt33CUOvfrWuGzQF7Fxx11SHp83/bsY0e/lKpkdAP5MfAKEtCkvL4vhbz4Wuxzxz8jJyavYr12/WbTf/29RsqQ45kz/JormzogZU0ZXXC6rQbNNokGzTVZ6/rHDXo8lxUVVNj9Aujz/Qp8qORYAgLVD8fy58eLV/4wT7nokZb+gZq3odNpZ0em0s6KstDR+mDIpin6YFcXzf7yfZbVataNGvQaxTrMWkZ2Ts9zzv/CvCyqeA7A2mTtnTtSpW7di/f1302L8uLEZnAhWTAAhreZMnxif9Hswtut8WkoEiYjIza8WDZpvGg2ab/qbz/v9N6NizJBX0zUmQJU67sS/VcmxAH8UJSUlkZu7/H9qFBUVxfTvv4+ZM2dESUlp1KtfPzbYYIMoKChYg1MCrJ6hzz8VDVtuHJ3PvWyZj2fn5ET99VtG/fVb/qbzDrjnlhj+8rPpGBEg7W654eq45qbbKtbZ2dlxbvfTYv480Za1kwBC2k0bNzwG9b4lttmnW9Ss23i1zzf5yw/j04E9o7x8+TdLBwAg8wa9/3682ueVWLp0afz71tsqPT5q5Mh4+qknY8Rnn0VZWVnKY/n5+bHd9tvH4UceFa1atVpTIwOsln63XhsL5/wQXS6+JvILq6/WuRYXLYhXrr8s3n/kvjRNB5B+Lz73VOx/UNfouNOuERHRsFHjOPPcC+P6Ky/N8GSwbFkv3HGq3ypTJXJy8mKDNrvGRu32juq16//m58+dOTnGDOkbU8d+UgXTQUTnbv/K9AgkRGGtFmvkdRbNn7zyg2AVvPneqEyPQMIsWrQobrz+uhg2dGhERGzcqlX85447Kx4vKSmJxx97NF7o3Xulb2rJysqKQw87PE465ZSU+8FBOrx5atdMj0BC1Wuxfux/wZWx9QFdI69a4W967pJFC+PTPs9H35uvjDnfTqmiCfmze7NgnUyPQII0a7FevPjaW1FY/cfwW1ZWFicd1TWGDx2S4cmgMp8AocqUli6NcZ8NiHGfDYx6TTeMRuttEes0aRk16zSKwlr1Ijvn5//8SkuWxtLFRTF/9rSY9e3XMXPKlzFz6tiI0OcAANZmxcXFcfmll8RXX3653GPuuuP2GDhgwCqdr7y8PHo/92zMmTsnepxzbrrGBKhSsyd/Ez3POiV6X3ZObLXfQbH+Nh2ixZZto/4GG0ZhrTqRlZ0dERFlpaWxaN7cmDlxXEwd9VlMHPpRjOj3svt9AH8oUydPivvvvj16/POSiPjxMlhXXHdzHHngPrF06dIMTwepBBDWgPKYPW1czJ42LmU3Oyc3cnLzo7RkSZSVlmRoNoDVd/edN2Z6BICMeeqJJ1YYP/q++uoqx49fGtC/f2y2WevovN9+qzMewBq1aN6c+Pjpx+Ljpx9L2S+oWSuivDwWFy3I0GQA6fXwg/8X++x/YGzeZsuIiGi1yWbR7Yzucf/dt2d4MkglgJAxZaUlwgeQCH855bhMjwCQEdOnT4+XXnyh0v5GG20UET9+OqTnY49Werxxkyax9977xAYtW0Z2dlZMmTwl+vd/IyZPmpRy3GOPPBy7deoUhYW/7XIyAGubxQvmZ3oEgLQqLS2Jqy69IJ58/tXIzsmJiIgz/nFO9O/3aoz/emyGp4OfCSAAAMDvMui996Kk5Oc3tGRlZcV5F1wQu3XaPSIihg0dGvPnp/7Sb6+994m/de8e+fn5FXvbt+8QB3XtGo89+kg8/9xzFfvz58+Pd956Kzrvv38VfycAa5+CmrWEE2Ct9vnIz2LHdq0jOye7Ym9xcXEGJ4LKsld+CAAAQGWDB3+cst5lt90q4kdExJTJk1Meb9OmTZx59tkp8eMnOTk5cUq3v8Quu+6asj9kyOA0TgywdsvOyYlNdtkjjrvjobh62IRMjwOwUgsWzI95c+dWfC1evDjTI0EKnwABgAwb+/X4GDVqdMxfUBRNGjeK9u23ibp1amd6LICVmj59esp69933SFnPmJH6+BFHHR3Z2St+D9Yxxx4X7737bsV6wni/AASSr8VW28T2hx8X2xx8ZNRs0DDT4wBAYgggAJBmCxcuiqHDPosJEydFtYKC2GnH9tGsWdNKx40Y8Xmc2eOSGDxkWMp+QUF+HHv0YXHt1RdHvXrrrKmxAX6zOT/8kLJu3LhxyrqwsHrKutUmm6z0nC3WWy9q1KgRRUVFERExd+6c1ZwSYO3UZJPW0fbAw2K7Q4+JBhtslOlxACCRBBDSputZD66R13nxztPWyOsA/B73PfBo3HDT7TF9+syKvdzc3Dj91BPihusuj/z8vIiIGPTB4DjokONj4cJFlc6xePGSePjRJ+ODD4fEqy8/scx4ArA2+PWnOZYsWZKybtwkNYis7NMfP8nNy1u9wQDWUnWarBttuxwabbscFi2375jpcQAg8dwDBADSoLy8PM4577I457zLUuJHRERJSUnce9/D0f2sCyMiYkFRUZx4Svdlxo9f+mrM17Hv/kdG0cKFVTY3wOpYp169lPXXX3+dsu7QYYeU6DHuV48vyw8//BDz5s6tWNetW3c1pwTIrOp11okdjj0l/vHcG3HlkK/jkKtuWaX4Ubp0yUqPAQBWzCdAACANHnnsqbjv0zT+SQAAIABJREFUgUdXeEzPXs/GCccdEaO/HBvffvvdKp133PiJccONd8S1V1+cjjEB0mqTTTaNad9+W7Hu8/JLsedee0Vu7o//zGjQsGHs0HHH+GDQ+xER8fxzz8WWW20VWVlZyz3nyy+9GOXl5RXrDVq2rKLpAapObn5BbLrbXtG2y2Gx9QFdI/9XlwRckckjhsUnvZ+IoS8+XYUTAvw+o8ZPWyOv02ZDV0IgPQQQAFhNc+bOi8uuuGGVju3Z69n4fvqMlL3Wm7WKvfbqFNnZWfHe+x/FsGEjUh6/654H46x/nBaNGjVI28wA6bDLrrvGO2+/VbGeOHFi3Hn7f+KsHudURJC/df97fDn6i5g9e3YMHfpJ9HzssTj+xBOXGUHeefut6P3ssyl7W7dtW7XfBECaZGVnR8vtdoi2XQ6LbQ85OmrUq7/Kz/1uzOj4tE/vGPJcr5j1zYQqnBIA/lwEENJmSXFR5FerUbFetOCHWPDDqr3DGeCPrE+f12P27NQbAR9/3BFxyknHRFZWxBNPPh//fahnRES88GLflOPO7fG3uPrKCyMnJ6di7/Y77o+LL7u2Yr1kydLo0/eN6HbysVX4XQD8dtu3bx8tN9wwJowfX7H31sCBMX7c+Dj2+ONi+/Ydom7ddeLKq6+JG66/LqZ9+2088/RT8cUXn8fBXQ+JVptsEjk52TFxwsR4vV+/eP+9d1POX1hYGLvvseea/rYAfpPmW7aL7Q49OtodfGTUafzb37E8fdyYuHH3dlUwGQAggJA2n7//XLTb66SKdVZWdgzue18sXeza9UCyvdzn9ZT1EYcfFA/ed1vFuuMO20dExH8f6hkLiooq9nfdpWNce/XFld4F3ePsM+LDjz+Jl1/pV7HXt++bAgiw1snOzo4zz+4RF11wfsoN0L/5ZmLccN11UVhYGBu3ahVNmjaNrdu2rbhc1qiRI2PUyJErPf+hhx8etWrVqrL5AX6v+uu3jG27Hh3bHnJUNG612So/77uvvojhr/SO/c6/vGLvl5f9AwDSSwAhbb75YlA037R9NGzROiIiqtWoE613ODhGvPNkhicDqFpjxoxLWV9yUY9Kx1x4wZnx6ONPxdKlJRV7fzvj5OVeB/+vp5+UEkDGT5iYpmkB0qtVq1ZxwYUXxb9vujElgkRELFq0KEaOGBEjR4xYzrOXb9ttt4ujjj4mXWMCpNVlg75Y4f2Mfum7r76IT/s8H5/26R3fjRkdEZESQAD+SObOmRN16tatWH//3bQYP25sBieCFRNASKPyGD7gsdjzuCsjJ68gIiJabrV7TB0zJGZN+zrDswFUnV/e06OwsFpsusnGlY5p3nzdaLXxhvHF6DEVex3ab7vcc7Zrt9WvXmNmGiYFqBo7dOwY1994U/zn1lti6tSpq32+3ffYM7qfeeYq/3IRYE1b2c+nWd9MiM/f7BtDnusVk0cMW0NTAVS9W264Oq656ecrHmRnZ8e53U+L+fPmZXAqWL7sTA9AsiycNzO+GvJqxTorKyu23uP4yM7R2oDkKi4urvhzzZo1l/sP4vXWa56ybthw+TfGLMjPT1kX/eLSWQBro0032yzuvOfeOP2Mv0ajxo1/1zlabrhhXHjxJXHu+edHQUFBmicEqFozvxkf/W67Nm7cY5u4ZsfW8fwV54kfQOK8+NxT8eGgn+/b1rBR4zjz3AszOBGsmN9Kk3Zjh70e6268XdRttF5ERNSu3yxabbNvShgBSJKGDRvE5Mk/vuN55sxZUVy8OKpVq/yLu8LCwpR1bu7y/zf8zaTJlV4DYG2Xn58fBx58cHQ56KD48svRMXzYsBjz5Vfx7bRvY+aMGbF06dKUY2vWqhUtWrSIzbfYIrbaauvYok0bn/oA/rBy8wuiWs1aUa3Gj2+IcW8PIInKy8vjyksuiBdfeysKq1ePiIijjz85XnvlxRg+dEiGp4PKBBDSrrysLD4d+HjsdtTFkZX144eMNm3fJb4dNyzmz56W4ekA0q/Zuk0rAkh5eXn0e31AdD14/9U658C33k9ZN27ccLXOB7AmZWVlRevWm0fr1pun7C9dujQWL14cBQUFkZeXl6HpAKpG3abNotPpZ0en08+OOd9OiRGvvRSf9ukdE4Z8KIYAiTJ18qS4/+7bo8c/L4mIHy+DdcV1N8eRB+6T8oYXWBsIIFSJOdMnxqv390h5B19ZiR+AQDLt3mmn+OjjTyrWN996dxyw/z6Rl5f6v9kH778t7r3rppWeb0FRUdxx1wMpezus4H4hAH8UeXl5wgeQCGWlpZGdk7Pcx+uu2zx2/Uv32PUv3eOHqZPjs74vxKev9I5vhg0WQ4BEePjB/4t99j8wNm+zZUREtNpks+h2Rve4/+7bMzwZpHIPEKpMyZJFsXTxwoqv0lIBBEimg7rsm7IePnxk7H/g0dGnb/+U/RrVq0fdunUqvpbli9FjouuhJ8akSVNS9rscsE96hwYA4He7crsN44UrL4hJn36y0mPXadYiOp12VvR4+Z341+Cx0fXKm9fAhABVq7S0JK669IIoKy2t2DvjH+fEhhu3yuBUUFnWC3ec6q0HwJ9S527/yvQIJMghh58U/V4fmLJXp07t+G7K56t8jquu+XfcePOdlfY323TjGPJR/xXeMwR+izffG5XpESBFUVFR5OXlRX5+fqZHIeHePLVrpkcggRpu2Cq2PeSo2PaQo6Nhy41/8/NnTPg6rt9lS58MoUq9WbBOpkcgoWrWrBXZOT+/x35xcXEsXrw4gxNBKr9JYY3Jr1Yzaq7TOPILakReQWHk5BVEacmSWLpkUSya/0MUzZ0RJUsWZXpMgN/lxusvj/fe+yiKFi783ecoKSld5v5tt1wjfgB/KKsSNEaOGBEvv/RifDp8eBQXF0dERP369WPHnXeOA/8fe/cdV2X5/3H8feAACoKIgANxb3HltjQt98rRtlIrG2batr7t8ct2aTtbVs60UnHkqjRzj9wTUWS4QUQ25/fHHegROBzkHI4eX8/Hg8eD676v+7o/54g+5H6f67oG3KQqVaqUVrkAUCLHo/Zp0ftvaNH7b6hyg8ZqM+ROtbnlLgWEVrbr+pBadfXyun3aunCO1v38k45s2+zkigHAcc6eTXZ1CYBNPE2BU5ULDFWt5jcopFpDBVSsKslUaF+LxaKzp+J19PAOHdmzVonHDpVeoQBQQg3q19Wsmd9q8C3DlZqa5rBxX3z+SXXtcp3DxgMAZ9m1c6dm/TxTWzZvVkZGhiQpPDxcvfv2U7/+/a32hvtx8mT9PHNGvk87nzx5UvPmzNHvCxdq9Jix6nrDDaX6GgCgpBL27NS8N19Q5FsvqVbr9mo9ZKiuuekWlfEPsHndhXuGJOzdpS2Rs7Vh1lSdOBRVSpUDAOCeWAILTuFdppyadblTYfVaW/2yWxwnY/dqx6rZOpXAf/jgHCyBBWf499/temrcK/p71dpiL4H14stv6b0PPpUk+fh46/VXntWjo0c6q1RcxVgCC442bcoUTZs6pdDlW27s3l2PPf6EJGlBZKQ+/+zTIsc0mUx6+7331KhRY4fWiqsbS2DBFbzKlFVE975qNfh2NeraQ55e9i33Z7FY9Hi1sk6uDlcLlsDC5cxs9lKbdh2sjq1etcJF1cDdMAMEDhdQMUzt+z8q34CKJRqnYlh9dbplnPZuWKhdq+dIIqsDcPlr3jxCSxbNUmxsvPbs3V+sa4MrBum6a9vpumvbafiwO1SjejUnVQkAjrNg/nxNnfKTzT7LlixRRESErr2uk36Y/L1d41osFn08YYImfvIpywACuKJlpqVq87xZ2jxvlsoGBCqiR1+1uXmo6l3bRSYPj0Kvu9QPEwJAaWrdroP69B+kWrXrKCS0kk6fPqUtG9crcs4v2rPLvg8E+vv7a9KPM6yORdRmOVQ4Br9JwKF8yvqrw4AxKusf5JDxTCYPNWjTVz5lA7Rl+Q8OGRMASkNYWBWFhRXvP2xjxzygsWMecFJFAOB4yWfO6NuvJ9nV9+cZM+XjU0YpKSlWx8OqVVNISIiOJiQoPj7e6lzM4cNat3aNOl7LUoAA3EPqmUStnzVF62dNUWCVMDXvO0gt+g1RrTYdir4YAC4j3t7eev2dD9V3wGCr4zVVRy1btdHwkQ9rYeRvGv/KCzp9+pSLqgQIQOBgLW64u8Dw42ziUaWlJMkvIPiC8xZt/3uWko7HqEy5QAUEVVVIeGMFhobr4r1CakZ0UtLxwzq47U/nvwgAAADYZfny5UpPT7c6ZjKZVKNmTVWuXFkxhw8rNjZWkhQXF6uZM6bn9fMPCNDTz4xTy2uuyTu2ZPFifTJxgnJycvKOrVu7lgAEgFtKjI/VX19/or++/kSV6zdSi/5D1HrInQquUdvVpQGATV5eXvpq8nS1bld4eGsymdSn/yC1atNeT45+UFs2rS/FCoHzCEDgMAEVw1SlTgurY8kn47Rp6Xc6fTT6vyMmVa7ZVC27DZOPb4CaXDtE2/6arqitf/x3frb8K1ZVk46DVblWc6uxGnccpNh965WRZv2pQQAAALjGtq3/WrX9/Pz09Lhn1ap167xjixYs0GeffiKLxaLogwclGb8QP//Ci2oSEWF1ffcePRR14IAi583NOxYdHS0AcHcJe3dp0ftvaNH7byi82TVqc/NQXXPTra4uCwAKdP/Dj9oMPy5UqXIVfTt1lp59/BEtXhjp5MqA/ApfbBIopmoN2urCmRspSce1YtbbF4QfkmRRQvRW/T37XWVlpstk8lDT629XcFj9vB7JJ+O0Zt4n2r12ri7k5eOr8AbtnfwqAKD4fvk10uoLAK4WB6OirNr3DBtuFX5IUq8+fdTp+uutjjVt1ixf+JGrcxfrvkmJiQ6oFACuHDFbN+mXl57Uy63ruLoUAMgnOCRUI0eNzXf8yOFD+mv5Eu3Y9q/S09Ksznl7e+u9iV9owOBbSqtMIA8zQOAwwWENrNo7Vs1SZvq5Avsmn07Qvo2L1Kj9TTKZPNSsy51aPuUVqz6710aqYtV6CglvlHcstGaEDvy7zPHFA0AJDL3nYat2anK/Qvtu3rzNqt2yZVOn1AQApSE5Odmq3bZduwL79evfXyv+PL+UaWHhhyRVCq1k1U5KSipBhQBw5crOzHB1CQCQT88+/eXt7Z3XzsnO1msvjtPsGVNlsVgkSRWDQ/TI2Kd0y513y2QyPizt4empN97+UDnZ2Yqc84tLasfViQAEDuNXPiTv+5zsLMVHbbHZP3bvejVqf5MkY/msoCp1dCr+wAU9LDq47S+rAKR8cDWH1gwApa1j5z5W7dTkGBdVAgAll3bBp/vMZrOCKlYssF+1auFWbX//gELHDKxQQSaTKe8X6MzMTAdUCgAAAEfo0q2HVfvbSZ9p1vQpVsdOnjiu114cp00b1urVtz6Qj4+PJCMEefO9icrOydHCeb+VWs24urEEFhzGy8c37/v01GRZLti8siCpyaes2kFV6ubrk3w63qrtXaZcCSoEAACAI+WGFJLk4+MjD4+Cf73w9/e3aptMBXaTJHl4eBQ6DgAAAFwr7KIPtsz4aXKhfSPn/KLR99+j1HPnV4jx8PTUWx98rJ59BzitRuBC/GYBh7lwc3IjqLDxm60krzJ+Vm1f/6D8fbzKWLWzs5gCDAAAAAAAALhCSMj55UpTUs4qIT7OZv/Vq1boweF3KCXlbN4xT0+z3vnoU/Xs099pdQK5WAILDpOWclpl/MpLkjzNXgquVl8njuwptH9o9cZW7Zyc7Hx9KlSubX2Ps2yCCQAAAABwrY9i04ru5ACPhZUpuhMAlKLsC57fpaelWc0ILsymDes0euQwffHtFPmUMf5d8/Q06+2PPlVOTo42rF3ttHoBZoDAYZJPJVi1G3cYJFMhyxeYvcuqQZu+VsdSz5y0avuU9Ve9Vr2sjiWeYK18AAAAAAAAwBWOHz2a932FoIoKCa1ko/d569f8o8dH3W+1v5vZ7KV3J36ubr362LgSKBlmgMBh4qM2K7xh+7x2UJU6atd3lDYt/V4ZqeenufkGVFTrniPlFxhqdf3J+H2SJJPJpJDwxmredWjejJJcsXvXOfEVAAAA4FJlZ2fr75Ur7eobdeCAzb72fJIQAAAApS/64AHVqmPs42symTTs/of03puv2nXtij+Xadxjo/TexC/k4ekpyQhBXnz9bafVCxCAwGHio7YoJem4/MqH5B2rXKu5et77jk7E7FZaSpJ8AyoqOKxBvpkhiceilXjssCSpTsseirju5nzjJ5+K07FDO5z7IgAAAHBJ0tLS9Pb4N+3qu2TxYi1ZvNjJFQEAAMDRFi+MVNduPfPaw+57UEmJifp+0mdWsztsXf/is0/ojXc+kslk7B/sUcgKMoAjEIDAYSw5Ofr3zynqMGBs3j9gkuTp6aVKNZsWfp0lR9v/npXXLugfPUtOjjYt+a7AfUIAAAAAAChN5xJPyTcwKK+dGB+rY/sL3wMTANzF8sWLlJSYqPKBgZKMWSBjn3pWw+9/SLt2btPYB++12vC8IHNmz5Svr5+ef9W+D88AJUEAAoc6dmiHdqyaXeAMjsLs/OdXm5ulZ2dnauPvX+v00WhHlAgAAAAAQInMef053fH+l3ltD09PfffAnUo9k+jCqgDA+VJSzmr8q8/rrQ8/tTpePjBQ7Tt2kre3t1JSih5n2o/fyexl1rgXXnNSpYCB+UVwuP2bftfGxd8oMyPVZr+szHRtWDRJ+zYuKrTP6YSDWjX7PcXt3+ToMgEAAAAAuCTrZvygvSuX57UDQiurzzMvu7AiACg9kXN+0azpU0o8zo/fTtJXn05wQEVA4ZgBAqeI2b1GR6O3q2ZEZ1Wu3VzlK4bJ08tH6anJSkk6rrj9m3R45yplpOWfEpeSdFz7Nv2uY4d26HjMbklsggngyvLLr5FO6Tt4UL9LKQcAnOaRR8e4ugQAcAmLxaIZz4zSuGUb5e3rJ0m6btiD2jRnpg6uX+3i6gDA+V59/mkdio7SqDFPqqyv7yWPM/H9t+Tr66u7Rox0YHXAeaZfJ9zP02UAV6Ve9/IJLThGWf/wUrlPanJMqdwH7m/pyu2uLgEAXGLp/QNdXQLcTLfRT6vfc6/nteN379B7vTooOzPDhVUB+S31qeDqEuCmgioGq8+AQWrVpp2qVA3TyHtuU/KZM8Uaw2QyafTjz6hm7Tp5x54c/YCjS8VVigAEwFWLAASOQgCCKw0BCICrFQEIHM3DbNYTkStVrWnLvGML3nlViyeMd2FVQH4EIACuVuwBAgAAAAAAcAlysrI0Y9xo5WRn5x3r8dizqlSvoQurAgAAudgDBA4TVq+1VTt23wYXVQIAAIArQWxsrKIPHlRq6jlVCApSw4aN5Ofn5+qyAKBYYv7dqP81qSIPD8+8Y5lpqS6sCAAA5CIAgcO06f2gVdtWABIYWsOqnXjskFNqAoDS8MnEt1xdAgBcFtLT07Vv714lJMTL28tbjSMiFBwcnK9fVFSUPvvkY+3ZvdvquJeXl7recKOGjxgh/4CA0iobAEosLbl4690DwNXOPyBAGenpSk9Pd3UpcHMEIHCJLre/YNX+beJIF1UCACV334ihri4BAFxufuQ8TZ86TYmJp/OOeXp6qk/fvrr3/pEym41fPXZs366XX3yhwF92MzMztfj3Rdq5c4de/783CwxPAAAAcPnxDwhQRkaG0tPSCu3Tpn1H3TV8pDpe11llfX0lSccSErRkUaR++v4bxRyOLq1ycRVhDxAAAAAAl8xiseiLzz7TF599ZhV+SFJ2drbmzZ2rTyZOkCSlpabq3bffKvKTfkdiYvS/Z8cpzcYv0ADgSi36DbH6AoCrUctWbfTJpMnauCtaq7fs0cadBzV38QoNHXafPDysHzuPfepZfTtllm7s0Ssv/JCk0MqVNXT4/frt9z/VbyD/nsLxmAECAAAA4JItWfy75kfOs9ln2dKlurFbd8UcPqyTJ0/aNW58XJxmTJuqYSPudUSZAOBQw7+cYtV+LGx2oX3Dm11j1Y7ZuskpNQFAaRo19kk9POZJmUwmq+O169bTcy+/oUZNmuqFZx6TJN1+13CNHDXW5ng+Pj56872JOnL4sLZsWu+0unH1IQABAKCEfvk10qrdsmUz1apZ3UXVAEDpSUlJ0ffffWdX32XLlirxlPUMkfDq1XVNq1byMHlo27at2r9vn9X53379VTcNGqTAwAoOqxkAStuTC/+xaj8WVsZFlQCAY9w2dJhGjX3KZp+BN9+mjevWaPHCSI196jm7xvXw8NCr49/TkL7dlJWV6YhSAQIQAABKaug9D1u1vbzMuuXmm/T8c4+rdq0aLqoKAJxvzerVSj5jvfHvjd26qUfPXjKZTFq+fJkWLVggSVr1999W/YbcfIvuGT7canmEX2fP1rfffJ3XzsrK0to1a9WzVy8nvgoAAADYK7BCBT39v5ft6nv/qEeVmpYq/4AAq+PRUQcUHx+rauHVFV69ptW5OvXqq2u3HlqyaL7DasbVjT1AAABwsMzMLE2dNlstWnXRfQ88poPRh11dEgA4xZrV1p9q7nz99XrsiSfVuEkTNWrcWI+MflS9+vSRZOz/kZaaKklq2qyZho0YkW9t6EFDhqhDx45Wx9atXePEVwAAAIDi6D/oZpUpW9bqmMVi0d7dO7Vs8SJFH4zKO16jZm09MGpMXjvx9Gk9MOx29et2nUbefZt6d+mgF8c9oZzsbKvxutzYw7kvAlcVAhAAAJzkwiBk9JhnFReX4OqSAMChjhw5YtW+/c6h+frcdtvtMputJ573698/33rRufr262/Vjo+PL2GVAAAAcJS27a+1ap9NPqNR992lwX1u1NiHRqjfjdfqtReeUU5OjiSpfsPGkoyQZOxDI/TPyr+srv/152maPmWy1bF6DRo58RXgakMAAgCAk2VkZOqb76aoUdOOGj3mWcXHH3V1SQDgEImnz+/p4e3trWrVquXrExwSoqphYVbHGjYs/JfauvXqWd8jMbGEVQIAAMBRGjRqYtX+6N3xWvnncqtjM6f+qEXz51gdW7dmlTauX1vgmAvm/mbVrhgc7IBKAQMBCAAADhbRpGGBx3ODkIgWnfTs86/rxImTpVwZADhWRkZG3vdlfX0LndURGhpq1S4fGFjomF5eXlbt3GWzAAAA4HoX/z/uz2WLC+w3dfJ3Vu2N6woOPyQpLjbGql0hqOIlVgfkRwACAICDLZo/Q/PnTtU11zQr8Py5c6maMPErNWzSUU8987KOHTtRyhUCgGOUL3/+F+AzSUlWgciFfHx8rNqenp6Fjnn0qPUsOVthCQAAAEqXr69f3veZmZk6dqzgFQ4ORu2zaiclni6wnySdOHE8b8ksyZhZDDiKueguwKUJq9faKX1j9224lHIAoFTd0LWTbujaScv/WKnnXxqvLVu25euTcu6cPv38W03+YYYefGCYnnz8YVWowIM+AFeO4OBgHT9+TJKxrvOG9evU8drrSjTmls2brdoVKlQo0XgAAABwnAtn/KalpubbwDxX0kXLmFoslkLHzMnOlsWSIz6rD2cgAIHTtOn9oFP6EoAAuJLc0LWT/llxnRYsWqrX3nhfW7fuyNfnbEqK3v/wM3351WQ9+MAwPfXEKAUGlndBtQBQPM1btNCuXTvz2j/PmKm27drn2/T8sSee1OgxY4scLy01Vb/9MtvqWMNGbIIJAAAA4NIQqwEA4GQmk0l9e3fX6pULNOWHz9Wgft0C++UGIfUbtdcLL41XYtKZUq4UAIqnfYcOVu39+/fpxf89p7Vr1lgdL1OmjMqVK5f3VZDDhw7plZdf0rFjx6zv0b5Dgf0BAAAAoCjMAAEAoJR4eHho8KB+GnhTH/02Z4Feee1d7dsfla9f8tmzev/Dz/Tt91M16qERenT0SJUP8HdBxQBgW526ddW6TRttWL8+79j27dt18OBBTf95lt3j/PTDD5oxfVq+4+Hh4WoSEeGQWgHAmVr0G+KUvlsiZxfdCQAAFIoABACAUpYbhAzo30tTp/+i8W99pOhDMfn6nT6dqP8b/6G+nPSDnnzsYT021v7lAgGgtNx3/0ht37ZNaWlplzxGdk7Ba0c/+PAomxumA8DlYviXU5zS97EwAhAAly+z2ayeffrb1bdRkwibfU0yFXoOKAkCEDjMluU/uroEALiimM1m3XPXrbrjtsGa+fNvevOtjxR18FC+fidOnNRzL7xBAALgslQtPFwvvvyKXn35JWVkZDhs3KF33a3mLVo4bDwAAAA4VllfX73/yVd29R10yx0adMsdTq4IyI8ABA4TvX2Fq0sAgCuSl5dZQ++8WbfeMlA//DRD49+eoNjYeFeXBQB2a9a8ud59/wNN+vILbd++vURjeXl5adjwEbpp0CAHVQcAAADgakUAAgDAZcLLy6z7RgzV3UNv1Y9TZur/xn+o+Pijri4LAOxSu04djX/nXZ04cUJHYvIv62dLQECAIiIi1CSiqXr07KnQSpWcVCUAAACAqwkBCK4oZu8yysq49PWlAeBK4O3tpftGDNVdd96in6b+rDfe/EAJCcdcXRYA2CU4OFjBwcHFumbQ4CEaNNj+TYEBwNVmjnvE1SUAAAA7EIDgsmcyeSi4WgNVb9RBVepco8jPR7u6JAAoFT4+3rpvxFDdftsgffnVZFeXAwAAgP/889M3ri4BAFzi1eefdnUJQLEQgOCyFRhaQ+GNOqha/bbyKevv6nIAwGX8fH31xGMPu7oMAAAAAMBV7udpP7m6BKBYCEBwWfEPqqqweq0V3qCd/AJDXV0OANjlycdHWbXLlC3jokoA4MqUkpIiLy8veXt7u7oUAAAAAG6EAAQuV6ZcoMLqtlLVeq1VsUpdV5cDAMX2xmvPuboEALis2BNobNu6VXPn/KYtmzcrLc3Y461ixYrqeN116j/gJlWpUqW0ygUAh/E0eyk7K7PQ82X8y6tieA0FVq0mTy+lqdA4AAAgAElEQVQvJSXEKX73DmWknivFKgEAuHoQgMAlvHx8VbVuK4U3aKeKYfVlMpnsui4nO8vJlQEAAOBS7Nq5U7N+nqktmzcrIyNDkhQeHq7effupX//+Vv/f+3HyZP08c4YsFovVGCdPntS8OXP0+8KFGj1mrLrecEOpvgYAuFTN+w5WpxEPyezto48GXJ/vfN0OndRj7HOq2/F6eXh6Wp3LTE/TrmWLtOSTdxXz78bSKhkALhtms5fatOtgdWz1qhUuqgbuhgAEpcbD06zQ6k0UVq+VqtZtJU+z/UscJB47pJjdq3VkzzonVggAl+aXXyOt2oMH9XNRJQDgGtOmTNG0qVPyBRoxMTH66ovPdeDAfj32+BOSpAWRkZo5Y7rN8TIyMvTh+++pcpXKatSosdPqBoCS8innrxFfTlXDLt0lKV+A4enlrb7jXlHXhx4v9IN/Xj5l1KzPQDXtNUDLv/hQkeNflCUnx+m1A4AjtG7XQX36D1Kt2nUUElpJp0+f0paN6xU55xft2bXDrjH8/f016ccZVsciajMbGI5BAAKnMplMCqpSR1XrtVZ4/XbyLlvO7muTT8Updt9GxexerZSk406sEgBKZug91huUpyYXHoBs3rzNqt2yZVOn1AQApWXB/PmaOsX2ZpjLlixRRESErr2uk36Y/L1d41osFn08YYImfvKpzGZ+bQFw+fH29dPD0+ar5jVtC+1z+3ufq83NQ+0az+ThoRtHPSn/4FBNfXyko8oEAKfw9vbW6+98qL4DBlsdr6k6atmqjYaPfFgLI3/T+Fde0OnTp1xUJUAAAicJDK2uag3aq1r9NirjF1js68+eTtCyn152QmUA4FodO/exaqcmx7ioEgAoueQzZ/Tt15Ps6vvzjJny8SmjlJQUq+Nh1aopJCRERxMSFB8fb3Uu5vBhrVu7Rh2vvc5hNQOAo/R8/H82w49r73nA7vDjQm1vvVvRG9fon5++KUl5AOA0Xl5e+mrydLW+aNmqC5lMJvXpP0it2rTXk6Mf1JZN60uxQuA8AhA4jF/5EFWr31bVGrSTf5D909SST8Ypdt8GNWw/IO+YxUZ/AAAAXB6WL1+u9PR0q2Mmk0k1atZU5cqVFXP4sGJjYyVJcXGxVktf+QcE6OlnxqnlNdfkHVuyeLE+mThBORcs/bJu7VoCEACXnaBq1dXlgTH5jh/Z/q8kY3ZI33Gv5Dt/8nC01k6frLhd22TJyVGlug3U9rZ7VLl+I6t+/Z57XRt/m6n0s8nOeQEAUAL3P/yozfDjQpUqV9G3U2fp2ccf0eKFkUVfADgYAQgcpvuw/5Nk32bmySfjFLt/g2L3bVTyqThJsgpAAAAAcPnbtvVfq7afn5+eHvesWrVunXds0YIF+uzTT2SxWBR98KAkIyR5/oUX1SQiwur67j16KOrAAUXOm5t3LDo62omvAAAuTYt+Q+Rp9sprW3Jy9NOYe7XxVyPobdilu3wDg6yuWTvjB83631hlpqXmHduxdIH+/Ppj9Xv2Nd3w8BN5x30Dg9Rq4G3656evnfxKAKB4gkNCNXLU2HzHjxw+pAP79yo4JFR16zWQT5kyeee8vb313sQv9MK4xzX3l59Ls1yAAASOZDv8SEk6roTorYrZtVqJxw6VUk0AAABwloNRUVbte4YNtwo/JKlXnz7atn2bVvz5Z96xps2a5Qs/cnXucr1VAJKUmOjAigHAMRp3s17WdPPcn/PCD0mqVLeh1fkDa/7WjKcfVk52dr6xcrKyNPeN/6lCWLhaDrgl73iTbr0JQABcdnr26S9vb++8dk52tl57cZxmz5gqi8VY06VicIgeGfuUbrnzbplMxvNCD09PvfH2h8rJzlbknF9cUjuuTgQgcKqUpOOK2b1Gsfs3KPlknKvLAQAAgAMlJ1svzdK2XbsC+/Xr398qACks/JCkSqGVrNpJSUklqBAAnCOoWnWr9obZ06zaFcLCrdpLPn67wPDjQr9/+KZVAFK1cbMSVgkAjtelWw+r9reTPtOs6VOsjp08cVyvvThOmzas1atvfSAfHx9JRgjy5nsTlZ2To4Xzfiu1mnF183B1AXBvHp5mmb3LyMurjOxdHgsAAABXhrS0tLzvzWazgipWLLBftWrWDwL9/QMKHTOwQoW8TwpKUmZmZgmrBADH878orD11xHqVg/QU64D48JaNRY6ZsHeXUs+cn/VWLjikBBUCgHOEXfT/uhk/TS60b+ScXzT6/nuUeu5c3jEPT0+99cHH6tmXpfBROpgBAqcqW66C6rbsrrotuys1+ZTiojYrbt8GnYw7ILY6BwAAuLLlLnMgST4+PvLwKPjzVf7+/lZtk43PxXh4eMjDw0PZRXxSGgBcyXLRv1FmnzJW7ZOHrfcvsuTk2DVudsYFoa+F35kBXH5CQs4HwCkpZ5UQb3vFl9WrVujB4Xfo8++myM+vnCTJ09Osdz76VLJY9PuCeU6tF2AGCBzGYrH9H7qy/kGq0/xGdbp5nHqOeEtNO92qoCp1xMwQAAAAAMCV5MyxBKt2eLOWVu3tiyOtlryq1rRFkWMGhFaSX8XgvHbyieMlrBIAHC875/y/belpaVYfiCnMpg3rNHrkMKVfMHvY09Ostz/6VN179XVKnUAuAhA4zO/fPKNtK2bo9NHoIvuW9Q9SnZbd1fmWZ/PCEAAAAAAArgSHNq+3ane+d5Q8vc5vCpwYd0TbFs3Na9/w8BNWy/sVpPN9o636xO/a5qBqAcBxjh89mvd9haCKCrloScDCrF/zjx4fdb/V8qZms5fenfi5uvXq4/A6gVwEIHCYtHNJOrBlqf6a8X9a+sML2r12ns4mHivyutww5EImk4eYGQIAAAAAuBxtnjvLql2lYYTueP9LeZq98o7Nen5s3kyRRl17qM8zrxQagrQadLtuHPWk1bG9f//h4KoBoOSiDx7I+95kMmnY/Q/Zfe2KP5dp3GOjrGbImc1eevH1tx1aI3Ah9gCBU5xNPKrda+dq99q58q9YVdUbdlB4ww4q41feruvLBYaq54i3FBe1WTG7/lHiscNOrhgAHOeXXyOd0nfwoH6XUg4AlIrs7Gz9vXKlXX2jDhyw2deepRQAwJV2Lluo2J1bFda4Wd6x1kPuUFiTZlr0wRvasWSBko8f05dDB2jEpGkKrllH3ceMU602HfXX1x/r8JYNysnOUpWGEeow9F617H+z1fjpZ5O1ftbU0n5ZAFCkxQsj1bVbz7z2sPseVFJior6f9JnV7A5b17/47BN6452P8kLhwvaRAxzB9OuE+/ntAqXCZDIpqEodhTfsoGr128jsXdbua5NPxSl230bF7F6tlCTWQYVj9Lr3ZVeXADdR1j+8VO6TmhxTKveB+1u6crurS4Cb6N+nd6ncZ96ChaVyH7i/pfcPdHUJcCPhzVtpzK/L5HXRBuiSEWDEbNusE9FRysnKUse77y/W2AvffU2/f/Smo0oFtNSngqtLgJvw8yunxSvXq3xgoNXxpMRE7dq5TWMfvFcpKWeLHOeOu0fo+VcL/3cuonaVEtcKSCyBhVJksVh0Mm6/tiz/UQu/flLrF36phKh/lZOdVeS1/kFV1bBdf3Uf9n+lUCkAAAAAALbF/LtRP4y6R5npafnO+ZTzV90OndX+juHFDj92/bFYiye+5agyAcChUlLOavyrz+c7Xj4wUO07dpK3t3cBV+U37cfv9PYbLzm6PCAfAhC4RHZWpmL3bdCayE+08OsntXHJtzoes8uO5Q7YFwQAAAAAcHnYtmiuPr25h45H7XPIeOtnTdV3I2+XJSfHIeMBgDNEzvlFs6ZPKfE4P347SV99OsEBFQGFYw8QuFxm+jnF7FqtmF2rVbZcBVWte42q1mutilXquro0AAAAAABsit60Tu90a6MOd92nLiPHKCi8RrHHiN25VUsmvK0tkbOdUCEAON6rzz+tQ9FRGjXmSZX19b3kcSa+/5Z8fX1114iRDqwOOI8ABJeV1LOndWDLMh3Yskz+QVUVVq+1whu2l1/5EFeXBgCF+oQlCgBcpR55dIyrSwCAy0JmeppWfPOpVn77mWq2aqcG13dTjZZtFVKrjgKrVpPZ2+d837RUnUtK1NF9uxW1bpX2//OXDqz5244VEQDg8mGxWPTdV59pzuyZ6jNgkFq1aacqVcOUZcdS9xd7+42XlZKSopq16zihUlzt2AQdV4TA0BoKb9RB1eq31cJJT7i6HLgJNkEHcLViE3QAVys2QYermL195F3WVxmp55SVke7qcnAVYhN0AFcrZoDgipB47JASjx3Sjr9nuboUAAAAAACKJSsjneADAAAXYBN0XFFyLmEaHQAAAAAAAADg6kMAAgAAAAAAAAAA3A4BCAAAAAAAAAAAcDsEIAAAAAAAAAAAwO0QgAAAAAAAAAAAALdDAAIAAAAAAAAAANwOAQgAAAAAAAAAAHA7BCAAAAAAAAAAAMDtEIAAAAAAAAAAAAC3QwACAAAAAAAAAADcDgEIAAAAAAAAAABwOwQgAAAAAAAAAADA7RCAAAAAAAAAAAAAt0MAAgAAAAAAAAAA3A4BCAAAAAAAAAAAcDsEIAAAAAAAAAAAwO0QgAAAAAAAAAAAALdDAAIAAAAAAAAAANwOAQgAAAAAAAAAAHA7BCAAAAAAAAAAAMDtEIAAAAAAAAAAAAC3QwACAAAAAAAAAADcDgEIAAAAAAAAAABwOwQgAAAAAAAAAADA7RCAAAAAAAAAAAAAt0MAAgAAAAAAAAAA3A4BCAAAAAAAAAAAcDsEIAAAAAAAAAAAwO0QgAAAAAAAAAAAALdDAAIAAAAAAAAAANwOAQgAAAAAAAAAAHA7BCAAAAAAAAAAAMDtEIAAAAAAAAAAAAC3QwACAAAAAAAAAADcDgEIAAAAAAAAAABwOwQgAAAAAAAAAADA7RCAAAAAAAAAAAAAt0MAAgAAAAAAAAAA3A4BCAAAAAAAAAAAcDsEIAAAAAAAAAAAwO0QgAAAAAAAAAAAALdDAAIAAAAAAAAAANwOAQgAAAAAAAAAAHA7BCAAAAAAAAAAAMDtEIAAAAAAAAAAAAC3QwACAAAAAAAAAADcDgEIAAAAAAAAAABwOwQgAAAAAAAAAADA7RCAAAAAAAAAAAAAt0MAAgAAAAAAAAAA3A4BCAAAAAAAAAAAcDsEIAAAAAAAAAAAwO0QgAAAAAAAAAAAALdDAAIAAAAAAAAAANwOAQgAAAAAAAAAAHA7BCAAAAAAAAAAAMDtEIAAAAAAAAAAAAC3QwACAAAAAAAAAADcDgEIAAAAAAAAAABwOwQgAAAAAAAAAADA7ZgsFovF1UUAAAAAAAAAAAA4EjNAAAAAAAAAAACA2yEAAQAAAAAAAAAAbocABAAAAAAAAAAAuB0CEAAAAAAAAAAA4HYIQAAAAAAAAAAAgNshAAEAAAAAAAAAAG6HAAQAAAAAAAAAALgdAhAAAAAAAAAAAOB2CEAAAAAAAAAAAIDbIQABAAAAAAAAAABuhwAEAAAAAAAAAAC4HQIQAAAAAAAAAADgdghAAAAAAAAAAACA2yEAAQAAAAAAAAAAbocABAAAAAAAAAAAuB0CEAAAAAAAAAAA4HYIQAAAAAAAAAAAgNshAAEAAAAAAAAAAG6HAAQAAAAAAAAAALgdAhAAAAAAAAAAAOB2CEAAAAAAAAAAAIDbIQABAAAAAAAAAABuhwAEAAAAAAAAAAC4HQIQAAAAAAAAAADgdsyuLgAAAAAAAAAAYC0tU9p4SPprn7QzXopLlCwW41xogNSgknRdXal9LSmgbMnvd/iUtHKftPagdOC4dC7DOO5jlmoGS61rSJ3qSvUrSSZTye+X61iy9M8BadV+ad9xKemccdzsKYVXkJpXkzrXl5pWNY4V5/V8/Ie06bBk9pC61Jceul6q4Ou42g+dlP7eb7xn+49LqbnvmZdUq6LUpqbUuZ5UN9Rx95Sk48nSqgPS6ihp71Ep8ZzxZ9KwsvRgZ+M9s8VikaJOGLWvjzZqT880zpXxMuptXUPq0kCqEeTY2kubyWLJ/WsDAAAAAAAAAHClUynS139Lk/6Wok9KWdmF9/UwSZUCpFtbSWNulGoHF+9eORYj9PhwqbR8j5ScZrt/WW+pTQ1pdFdpUEsjWLhU22KlD5ZIc7dKp8+dD3cK4m2WGlWWHr5euqud5Odje+wtMdKAz6SYU9bH29aS5j0ihfpfet3ZOdKy3dLE5dJfe6Wz6bb7+3pL7WpJY2+U+jYt2Xv27xHjvnP+NX5OCnrPAstK00ZKvZrkP5eVLS3YbgRD/xw4H3IVppyPEbI9dqPUvbHx83alIQABAAAAAAAAABfLsUhT10n/+1WKOV386wPLSk/1kB7vZjx0L0r0SemZ2cbD9Iys4t3LwyRdW1eaeJvUIrx41yamSi/Okb5dVfQD+IuZTFLjKtL7N0s9Ghc8EyUzW7rxA2nl/oLHGNVF+vSO4t0318ET0mMzpQXbpKyc4l3r6SFdX0+acLsUUbV4155KkV6eZ/97VidE2vi8VP6CmUG74o3al+02QpziMHsYAciE26R6Dp7N4mwEIAAAAAAAAADgQikZ0qPTpB/WFP/h9IVMJmOppx/vlcICC++3eKd03w/SkUsIWi5Uvqz00a3S8I729d8RJ90+SdoeV7L7+pil//WRnusleV20LNb+Y1LT14wlxApSPUja9ap9IVEui0VauEO6b7KUcObS65akQF/pszuk29vYt5TYtljprm+lrUfsv4fJJC0aY4REFos0a5P08BTpZMql1y1JweWkb+6RBjQv2TiliU3QAQAAAAAAAMBFUjKk276SvvunZOGHZDzs/mOP1HOCMVuhIL9tkW75quThhyQlpUoPTpHeW1x03y0xUvePSh5+SFJ6lvTqPGnsDGPGx4VSMwsPPyRjma+k1OLdb9p66eYvSh5+SMZ+HcO+lz77y/ayX5LxnvX9uHjhh2SMe/Ks8f0XK6S7vy15+CFJJ85Kt34l/bim5GOVFgIQAAAAAAAAAHCB7Bzp/h+k+dscO27uTItTFz30/muvNPx76UwxAwBbMrKk5+dIU9YW3if6pNT3Eyk+yXH3zbFIX66Q3lggFXeJo+KsibR8t/TgT0aw4iiZ2dLjM6XZmwrvE3VcGvj5pS2HZvaQ6leWft0sPfmzERg5SnqWNPJHaekux43pTAQgTrZy5T9aufIfnTt3ztWlAAAAAAAAALiMfPqnNGODc8ZeF23s8ZHz38P+o2ekB34q/uwHe2RkSaOnSzvj85/LzDZCl7hEx983xyK9vUiav9XxY0vGjI97fyh6o/NLkZktPTxV2ncs/7mMbCNkOHTy0sbu2sDYwHzUVMcGN7nSs6R7vjN+pi53BCBOtmTxci1ZvFxnkx0wxwgAAAAAAACAW4g5Lb0wp3izEYpryjppe6xxj9fnS3uPOu9eieeMWQ05F72eSSuNmSfOkp5lBD2JDv78uUXSS3MvPYSwx4mzRu0XL332zd/Sn5fwnplMUud60tf3GOGaI5bsKkx8kvThUueN7yhmVxcAAAAAAAAAAFeb8QuN/SiK4ukhNQuTOteXqpQ3lrVaHSWtO1j00kZpmdKGQ5K32dhg3R7B5aTr6xv39PSQdidIf+2TYk4Vfe3SXcYG672aGO1zGdKbC+27bzkfqVM9qXUNY4PyqBNGcLLvWNEh0a4EYw+Vx7vZdy977Iq3f6+LEH9j8/mIqpKHh7QnQVq2274lv+ZtlVbuN66XpDNp0ntL8gdJBfEvI11bR2pdUwosK7UIlzrWNv68V9gZoFQpL3VpIDWuYrS3xxr7yBxLLvraSwlpShsBCAAAAAAAAACUotPn7Ask6oRIH94q9Wgs+VzwJDc7R9p02JhxseqA7TEskr5ZVXTY4uUpPdBJ+l9vqWqg9blTKef32ziXUfgYORZj5kFuADJzoxRbxNJXJpM0sIX01iCpXqjRzpWSLv28URr3S9EP5L9ZJT3Y2Xaf4vhyhe3N1CVjr43RXaVxvaTKAdbnTqZIHy+X3v7d9jjZOdLnf0nX1zNe+6+bC9/APpeHSbqpuTR+sFS/kmS66PzFM0psaVxFermf1KDS+WMJZ6QPlkgfLcu/yfyFnDl7yVGuyADkzJkzOhQdozNnkuVp9lSlSiGqUaOGPDwu/qMu+Nro6MNKPnNWXt5eCg6uqFq1ashkKvzalSv/kSS1atVCvr6++c5nZWVr9Wpjl5+2bVvLx8f7kl+Ph4eHqoZVVvXq4YXWVJJ6cq9t166NvLy8FB19SPHxCcrOzlb79m3l5XVF/kgAAAAAAAAAV4w5W4yH+7Y0riItGiuFV8h/ztNDalNTmv+oNPSbwjdR9zFLTatK7/xu+15mD+m9m6VHuhhjXyzIT3q2l9SoinTn17b3lVi6SzqebMwkmb7O9n0l6dGu0jtDrAOeXH4+0vCOUtMwqd8ntpd02hUvbYkxZkWUVEq69NsW2308PYxw6pEu1qFNrop+0iv9pcZVpXu+tT1bZ/FO6dQ545qp62wHCyaTEboU9p7l1tapnvTvEduvQTJmqnR4S3qiuzTmBimgjBHmvD3YCKRGTZWyCglUujQoenxXu6KedqenZ2h+5CJt27Zd2RfFWIGB5dWvX2/Vb1C3wGvT0tIVGblQ27ftVE6O9bUVKgSqd+8eatiofoHXLlm8XJLUoH69QgKHzLw+zZtH2B2A2Ho9QUFBGnBTH9WuXdOh9eQer1evjubNXaiYmPN/C1q1akEAAgAAAAAAADjZkl22z5fxkr4fXnD4caHyZaVJd0s3fmAsA3Uhk0m691pjOaSo47bHua114eHHhePd1NyY7fDKvML7pWUaS1f1ayat2G/7vm1rSm8NLvxBfq5WNaSPbjPCnsJmN+RYjPBlUEvbY9ljV4KxR4st97QvPPy40K2tpE2HjJkghUk8J62JkjrWMZYss6VtTen/Bhb9nj3eTZr7r3TYjqXLTp8z9juZvl4aP0jqE2H8LNzfyXgvCtrro1aw9NiNRY/talfMJuhpaemaNOk7bdmyVZ6eZrVpc4169+mhLl06qVKlUCUmJmnq1BnauXN3AdemadJX32nrv9tlNnuqVauW6tW7u7p07aSwsCo6fTpR06bN1Lp1G0v19Xw96Xtt2bJVZrNZrVq3VO8+PdT1hs6qXLmSTp06pR8mT9G+vUX8K3GJ5vw2XwkJR9W+fRsNHNhP/fr3lpdX8WauAAAAAAAAACi+oh5yD2xh7OtgjyrlpchHjWuC/IylrMIrSC/1ld6/RdoaW/gn+CWprJf0TC/b4Ucuk8mYsRHqb7vf5hhpR7yUamO5LEl6rrdxf3sMuUZqUc12n02H7RurKJsP256F4WOWXuhbdPiR6+mexswKWzYckg4cl86kFt7HZDJm4pTzKfqetYOl+aOlGxoaS2YVxWKRdsRJgz+Xbpsk7TlqLK01fpDxVT3ICNMCy0q9I6TFjxk/e5e7K+bj/gsXLtaxo8cVFBSk4SOGKjDw/Lvb9YbOmjtngTZu3KzIeYvUoEE9eXp65p1fMH+xjh8/oaCgII24d6jKlz9/7Q03XK8Vf63S0qV/aNHCxapZo7pCK4U4/fUsWrRER48eU2ilEN1zzx0KCDi/SFyXLp20YP7vWrt2g377LVKPPT7a4TMzTp9O1COjRyooKMih4wIAAAAAAACw7dBJ2+dvap5/XwdbagdLsx8y9slISTeWUgr8b+GY6CL2k6hXSWpSxf57VfA1Nkn/2cZnyaNPFn1f/zJSt0b239fsIfVvLm20EXIcOuWYfSmii/jzaRpmvOf2quhnvGfzttq+Z8wp22FVsJ90XcELIBUoIkxaOMaY2fHKvKL3FpGM+8/eZCyN9WR3I/B6tpf08PXSibNGYFW5vH2hyuXgipgBkpycrC2bjZ+Om28ZaBV+SJLJZFKfvj1Uv35dVaoUolOnzs9POnPmjP7911gEb/CQAVbhR67O11+runVrKysrW//8t3eGMxmv5195eHjo9ttvtgo/JOP19O7TQxWDg5ScfFY7dxQxJ+4SdL2hM+EHAAAAAAAA4AK29oOQpNqX8PlsD5Oxd0OdkPPhhyQl2phRIBn7PNgz+yOXySQ1qmy7z4mzRd+3RpCx1FdxFHXfs+lSWhHvrT2Siqi9QRF1FKRuqO3zKenS8bO2+1QJtP6ztYe3p7Fc15pnjWWx/OxcBCjxnPTiHKn9W8bG7OV8jJ+tqoFXTvghXSEByM6du2WxWFStWlVVq1a1wD5eXl666+7bNWz4UIWEnI/fdu7YI4vFosqVK6l69cLnSLVp2+q//rudvnv9zp17lJNjUZ06tRQcXLHAPh4eHqpXt44kKSoq2uE1FPY+AgAAAAAAAHCtHBuzAIrLXMQT4Mzs4o9pa5aCZIQkRd23qDEu6b4qeuZMjsX4KonC9iEp6r5FySriz8Lbs+j3tTCh/tL7N0t/PWXMvLE3xNidIN3ylTT4C2ln/KXd25WuiCWwTp40dmqpWrUYc7H+c+q0cW21amE2+4WHG+fT0tJ07tw5+fkVM0orTk3/vZ6MjAytXPlP4f1OGzNZkpKSHF6Dl7mY8SoAAAAAAAAAh/D1ls7Z2B9jR7zUvnbxxkxJNx5WH0s2ZhvUDjZmdhQ1Y2DPUSkjy9jfwR4WSdtibfep5G9s0G5L9Eljv4sgP/vuK0lbYmyfL1/W+PIxFz7LJjnNWAqqmo0N5oPL2b7PtlhjqS179wCRpK1HbJ8v6v26VGfSpF3xxoyceiHSNdWNvUGmr5deibRvWazsHGND9T/3SGNvNJbGcla9jnZFBCDnUow5Rz4+duzuUsi1ZcravrZs2fN/Ys4OQFJSzkmSDh2K0aFDRfytlZSalua0WgAAAAAAAACUrrohxubkhZm1URrewf6lqVbtlx6ZZjyYz7EYS0sNbCFNvM24ly1Rx6W1B6VO9ey7V1yi9Ode231qhxhLa9mSlin9tkW696AFMDQAAA3eSURBVFr77puaaTyEt6VWsFSxnBH6HD1TcJ8ci/Hw39brLWp/jz0J0pYjUstw2/1yHTolrTlou08dJ2xLvWiHNHaGtO+YEdj4+UhD20rvDJHu6WBsZj5+kfTVSiNAK8qZNOn1+dLMjdJXd0md7fyZcaUrIgDJDSfSLiEI8PX979pU23+Cqannx/b1LV74Udwls3JfT4MG9dSiRbMi+xcV3pS0HgAAAAAAAAClp20t2wHIkl3Sgu1S/6IfHWpXvDTkS+sH/mmZxkP+cxnSGzfZnhGRmS29Nl+KHG30syXHYjwAT7bxmNZkktrWlOpXMmYJ2NpPY/wiI6ixZxbIlyukvcds92lXSwryNe5dWAAiST+tle7vVHiA0aqGsURUYctWZeVI//tVmje66CWpcizSS3OkVBszfiRjxs/OONt9imPjYen2Sdbvf0r6f2FHhjR5uBTy37JYQ9tKz/4qLd9t31JdexKkmz6TVo+TGl7Cfiil6YrYAyQoyJiPdCS2+D8BFf67NraIa48cMf7FKVPGJ18A4uFhvE0ZmQX/lJ77b0aH/TUF5o3bJKJRkV916ljPd3N0PQAAAAAAAABKT68mts9n50gP/CitL2Jr4MOnpKHfFP6wf/426fS5oh9SL9stjfvFmGVhq6YJy6Sv/7Y9Vjkf6bq6kpen1L2R7b77j0nDvzdqLIzFYmzC/eIc2x/89vI09rYwmaTeRby/Z9KkoV8bMyMKUifECFFs+X2n9PQsY/mwwmRlS28vMgIXWyoH2D+bxF4TlhUePk1fb4ReWTnG+9WqhrTgUenHe+2fiZJ4TvpomePqdZYrIgBp1Li+TCYpPi5BMTEFL5aWkZGpn36crsnfT9Hx4+cXLmvcuKFMJpMSEhLyQo6CrF+38b97Ncy3dltuIHL0aMF/I/bu3V+cl6PGjRvIZJL2749ScnJyof0OHTps9VqcVQ8AAAAAAACA0tOnqfHpe1sSzkg9JkjvLjb29bhQUqo0bb10/XvSZhsr7GfnGJ/Wv6217XtZLNLE5dLAz6QNh6wf6mdlG7NM7v1Benp20RuAD2wh+Zcxvr+7ve2+kjRvq3TDB9LSXdYBTI7FCHie/dUIec4WsURTqxpSo/+CnkEtjeWebNmVIN34gfTdP8bD/AuV8ZJubWX7eotFmrDcmH2z8ZD1ZvJZ2cZyZHd/J70wp+hZFQOaO3ZPjawcadPhws9n50hvzJfumGTsTZKVYwRId7aV/n5G6tvUvvsUFdBdDq6IJbACAwMVEdFE27bt0Kyf52jEvUMVGBiYd95ikX5ftER79+6Xv79/3owRSSpfPkDNmkfo3y3bNHvWHI249y4FBARYjb9y5T/at++AzGZPdezYLt/9w6uHadfOPfrrz1Vq1Khh3rJakhQbG68//vir2K+nSZPG2r59p2ZMn6077rw1354jMTGx+mHyNGVmZurmWwaqWbMIp9UDAAAAAAAAoPSU9ZIe6mwsJ2VL4jnpmdnSu79LzcOlKuWlUynGw/WY0/YthV/GywgiPlqWP0i5kMUiLd4p/bHHCBIaVTGWgdp3TNoRZ3t2SC4vT2l01/Pt3hFS4yrSznjb122JkXpOMPYNaVLV2CQ++qTxOm0toZXLwySNuv78Ru4NKhkP8WdusH1dzGnpvh+kl+ZKzcKMUKpuqHR7a2lkJ2niH/nDkQtZLFLkVuN9a1TZuK+Hh3TguFF7mh3vmY9Zevj6ovsVh4dJKmPHcmazNkmR24w/o9wZL3sSpB1F/Hnl8vMuWZ2l4YoIQCSpb7+eiouL18mTp/TJx1+pWbMIhYQGK/Vcqnbt2qOjR4/Jw8Okfv16ydPT0/ravj0VFxuv48dPaOKEL9S0WROFhAQrLS1N+/cd0JEjcTKZpF69e6hSpfy783Ts2E67d+1VYmKiPv3kS7W8prkCAvwVeyReW7duV/MWTbVp45ZivZ5+/XsrPj5Bhw8f0UcffqqIiMYKDQ1RVnaWYmPjtGf3PmVnZ6tWrRqKiLCes+WMegAAAAAAAACUnie6S9+sMjYVL8rxs8YMieIqX1bqWEeqVkF6tKv00ryiQ5PMbGN/Elt7lBTm9jbG/h+5vDylNwZKQz6XispqcizSnqPGV3F1qC3dfM35tskkvdjXCCZsBRiS8X4cOW185fpgifT9cGnMDdJrkUXfPyNL+veI8VVcI641wi1H8jAZ4dNGG7NAcqVlGrNFbM0YKUz/5sW/prR5vvLKK6+4ugh7eHl5qXnzCJ0+nahjR48pNjZe+/cdUHT0YaWkpCggIEBDhgxUw0b1811rNpvVvHlTJZ05o4SEo4qLjdf+/VGKjj6sM2eSVaFCoAYNGqDmLQqe2xMYWF7lAwIUFXVQqalpOnQoRnv37tfRo8fUqlVLdevWVav+Xi1J6nhtO/n4nJ9f9ccfKyRJbdu2ll+587v5eHl5qUULo6ajCUeN17P/gKIOHNTx4ydkNnuqTZtrNHjIQHl6eji9HgAAAAAAAAClp4yXVLOi9MsW+zaeLi6TSXqmpzSohfF9y+rSX3uNWQ/OUD1ImjHy/PJXuRpWMjYv334JgYo9ypeVptwn1ahofTzUXzJJWr6n6PDlYmmZRuD03s3SmigpPslR1VqrE6L/b+/OYrQqzziA/2e+YZgBZFgGRJYOVIxapEWldhGwdUkbaQzaWltSa0BCMFa72Js2vWti0iYNjYkLjanaRRqalAsjjTZtidamKVoXqm0EGkdZVIoRGAgKQi9ekRZm+5ihwsnvdzOTOec77/udc3f+8zxPfrG4zE1JSkupNX/v+fyJo5Klc/t37fMmJQ89m+zYM/B9dmfGxGTFV45U3ZysGg4d6k+h1Mll586d6ex8Jbt3daVWq2Xc+PZMm9bx3nDw3uzatTud7wYfzUOHpL19bKZO7UjD0YM/urFnz95seHFjdnd1Zdiw1kyb1pExY8Zk//4DWftusDB33sVpaTkSOPzu0T8kST7xyY9lRA+BQ1dX13thTENDQ0a1tWXqtI60trZ0e/6J3g8AAAAA8P/xndXJDx7pXzureiyYlTy4pLTbOuyfryZX/Ph/qx0Gw2ktyUM3J5cc+7/pSUoVxqd+dHwVEr1pbkruXpgsvrj7428dSBbdX+alHI87rksuPSe5fHmZyTKY2lqT395aqlcOu2ttcvPKnj8zuyNZ993+r/GXfyWfuzPZ0XX8++zO2OHJ2m8n500c3OueCKdkAAIAAAAAUAXvHEy+uSq5c+3gVYJ8dkYJP0YPO/bYU53JgrsHLwQ5rSX52aISuPRm687kyjsGLwRpbkp+eE1y62Wl0qMnu/Yl1/+0DFuv90349+Yn378qeXxD8oUVvc9QqUdba/LgjcmVRzUkWvFYsuyXPX+u3gAkSR5en3z1vjI7ZjCMHZ6svimZe9bgXO9E67tkAgAAAACAE6LWmCz/YnL71WX490A0NSZL5iSrlnYffiTJhR3Jo98oL9P70RSnV9Pak4e/1nf4kSQT28q682eWGRUD0T4iuf+GvsOPJBnZkqxcUmagDKn1cfJRJowsP+eelfz+W8msQZjVcea45JGvHxt+HD7W2705o63+9ebPTNbckpwzof7PHu1DZyR/vO3UCT+SU2gGCAAAAABAFTU2JHOmJ5edm/xjW6mWqKdaoaEhOfv05K6FZe5Hy5Dezx83IvnS7KSplqzfUmZe1KO1Obnh42X2xow62iANH5pce2EyoS15+pVk97761m1qLC/0Vy5JPn123+HHYUNqyWdmlDkoz25O/t2PaoixI5Ll15ZqjaTMFFn40fJcnttSBp/Xo3VIsnRe8vPF5Vl15/SRyepnytD7o9Uak9sXJOeeUd+6STJ5dPLli5K9byfPbyuD7usxYmhyy6XJA4uSjjH1r/9+0gILAAAAAOAkceBgsmZ9cs9jyRMbSwunngxrTmZOSm6ck1w3u1Q71KvzjdJ6aeVfky1v9vxyvNZYQoCrPpIsmzfwaogde5L7nkju+3OyaXuZ19GdhiSjhyeXn5vcdEkyd3rZy/Ha83by6yeTe/+UPLM52fPWseeMGZ7ce31y9fndX2Pj68lPHk9WPVnu2YGD3Z9XayxVJAtmlb33Jyx6qjO55p7k5TeO/K25KbntitKOayDfPUme31r2/punk1d39rz3ployqS35/AXJskuSs8YPbN33iwAEAAAAAOAktPXNZF1n8sK28vvhN7njTistjWZ3JB9sH3grq6QEEOu3lBfwm7aXaoEkGdqUTG1Pzp9SQo8RQwe+1n9752AZzr7upeTF144EPk21ZMro5MOTkws+UGZPDKZDh5KXdpTv+8K2Mt/j4KFk4qhk4UXlvvZl3/5yz/72crLh9SOVNEOHJGe2l/s1a0r9rc1e25X8al255rDmEjpdPL3/FS/9sfft5LnNZe+btpf7Xmssz3f6+GTW5LL3vqqJTnYCEAAAAAAAoHIMQQcAAAAAACpHAAIAAAAAAFSOAAQAAAAAAKgcAQgAAAAAAFA5AhAAAAAAAKByBCAAAAAAAEDlCEAAAAAAAIDKEYAAAAAAAACVIwABAAAAAAAqRwACAAAAAABUjgAEAAAAAACoHAEIAAAAAABQOQIQAAAAAACgcgQgAAAAAABA5QhAAAAAAACAyhGAAAAAAAAAlSMAAQAAAAAAKkcAAgAAAAAAVI4ABAAAAAAAqBwBCAAAAAAAUDkCEAAAAAAAoHIEIAAAAAAAQOUIQAAAAAAAgMoRgAAAAAAAAJXzH423B/1zeLVGAAAAAElFTkSuQmCC;" vertex="1" parent="1">
                    <mxGeometry x="539" y="946.25" width="138.33" height="103.75" as="geometry"/>
                </mxCell>
            </root>
        </mxGraphModel>
    </diagram>
</mxfile>